<svg xmlns="http://www.w3.org/2000/svg" xmlns:xlink="http://www.w3.org/1999/xlink" width="2000" zoomAndPan="magnify" viewBox="0 0 1500 1499.999933" height="2000" preserveAspectRatio="xMidYMid meet" version="1.0"><defs><g/><clipPath id="d7b1baa619"><rect x="0" width="1460" y="0" height="198"/></clipPath><clipPath id="c3e499fa03"><path d="M 0.121094 82 L 319.558594 82 L 319.558594 449 L 0.121094 449 Z M 0.121094 82 " clip-rule="nonzero"/></clipPath><clipPath id="56624eea48"><rect x="0" width="320" y="0" height="572"/></clipPath><clipPath id="4e34e4fd0d"><rect x="0" width="343" y="0" height="571"/></clipPath><clipPath id="24fa2848d2"><path d="M 540.984375 226 L 731.484375 226 L 731.484375 454 L 540.984375 454 Z M 540.984375 226 " clip-rule="nonzero"/></clipPath><clipPath id="93c8c5b529"><path d="M 563 158.109375 L 578 158.109375 L 578 249 L 563 249 Z M 563 158.109375 " clip-rule="nonzero"/></clipPath><clipPath id="9afdc18c71"><path d="M 693 158.109375 L 709 158.109375 L 709 250 L 693 250 Z M 693 158.109375 " clip-rule="nonzero"/></clipPath><clipPath id="7db1bded68"><path d="M 0.480469 84 L 320 84 L 320 449 L 0.480469 449 Z M 0.480469 84 " clip-rule="nonzero"/></clipPath><clipPath id="b6ef6be76c"><rect x="0" width="539" y="0" height="571"/></clipPath></defs><g transform="matrix(1, 0, 0, 1, 20, 1183)"><g clip-path="url(#d7b1baa619)"><path fill="#000000" d="M 50.355469 2.082031 L 1409.636719 2.082031 C 1436.484375 2.082031 1458.246094 23.847656 1458.246094 50.695312 L 1458.246094 147.917969 C 1458.246094 174.765625 1436.484375 196.53125 1409.636719 196.53125 L 50.355469 196.53125 C 23.507812 196.53125 1.746094 174.765625 1.746094 147.917969 L 1.746094 50.695312 C 1.746094 23.847656 23.507812 2.082031 50.355469 2.082031 Z M 50.355469 2.082031 " fill-opacity="1" fill-rule="nonzero"/><g fill="#ffffff" fill-opacity="1"><g transform="translate(57.537716, 132.700342)"><g><path d="M 7.203125 0 L 7.203125 -67.921875 L 24.390625 -67.921875 L 24.390625 -14.609375 L 51.34375 -14.609375 L 51.34375 0 Z M 7.203125 0 "/></g></g></g><g fill="#ffffff" fill-opacity="1"><g transform="translate(143.729787, 132.700342)"><g><path d="M 7.015625 0 L 7.015625 -67.921875 L 24.1875 -67.921875 L 24.1875 0 Z M 7.015625 0 "/></g></g></g><g fill="#ffffff" fill-opacity="1"><g transform="translate(207.512527, 132.700342)"><g><path d="M 7.203125 0 L 7.203125 -67.921875 L 53.421875 -67.921875 L 53.421875 -54 L 24.390625 -54 L 24.390625 -39.09375 L 49.65625 -39.09375 L 49.65625 -25.171875 L 24.390625 -25.171875 L 24.390625 0 Z M 7.203125 0 "/></g></g></g><g fill="#ffffff" fill-opacity="1"><g transform="translate(297.061071, 132.700342)"><g><path d="M 20.34375 0 L 20.34375 -53.3125 L 1.578125 -53.3125 L 1.578125 -67.921875 L 56.375 -67.921875 L 56.375 -53.3125 L 37.515625 -53.3125 L 37.515625 0 Z M 20.34375 0 "/></g></g></g><g fill="#ffffff" fill-opacity="1"><g transform="translate(387.498079, 132.700342)"><g><path d="M 7.015625 0 L 7.015625 -67.921875 L 24.1875 -67.921875 L 24.1875 0 Z M 7.015625 0 "/></g></g></g><g fill="#ffffff" fill-opacity="1"><g transform="translate(451.280838, 132.700342)"><g><path d="M 47.390625 0 L 23.890625 -38.796875 L 23.40625 -38.796875 L 23.40625 0 L 7.015625 0 L 7.015625 -67.921875 L 24.6875 -67.921875 L 46.5 -32.6875 L 47 -32.6875 L 47 -67.921875 L 63.484375 -67.921875 L 63.484375 0 Z M 47.390625 0 "/></g></g></g><g fill="#ffffff" fill-opacity="1"><g transform="translate(554.353925, 132.700342)"><g><path d="M 34.0625 -26.65625 L 34.0625 -39.6875 L 59.4375 -39.6875 L 59.4375 -1.484375 C 56.007812 -0.828125 52.070312 -0.285156 47.625 0.140625 C 43.1875 0.578125 39.289062 0.796875 35.9375 0.796875 C 27.1875 0.796875 20.703125 -0.109375 16.484375 -1.921875 C 12.273438 -3.734375 9.378906 -7.023438 7.796875 -11.796875 C 6.222656 -16.566406 5.4375 -23.957031 5.4375 -33.96875 C 5.4375 -43.3125 6.238281 -50.398438 7.84375 -55.234375 C 9.457031 -60.078125 12.40625 -63.535156 16.6875 -65.609375 C 20.96875 -67.679688 27.351562 -68.71875 35.84375 -68.71875 C 40.707031 -68.71875 45.539062 -68.421875 50.34375 -67.828125 C 55.15625 -67.234375 58.085938 -66.773438 59.140625 -66.453125 L 59.140625 -53.421875 C 51.765625 -54.335938 46.101562 -54.796875 42.15625 -54.796875 C 35.644531 -54.796875 31.1875 -54.445312 28.78125 -53.75 C 26.375 -53.0625 24.773438 -51.367188 23.984375 -48.671875 C 23.203125 -45.972656 22.8125 -41.070312 22.8125 -33.96875 C 22.8125 -27.507812 23.101562 -22.878906 23.6875 -20.078125 C 24.28125 -17.285156 25.515625 -15.363281 27.390625 -14.3125 C 29.273438 -13.257812 32.351562 -12.734375 36.625 -12.734375 C 39 -12.734375 41.269531 -12.832031 43.4375 -13.03125 L 43.4375 -26.65625 Z M 34.0625 -26.65625 "/></g></g></g><g fill="#ffffff" fill-opacity="1"><g transform="translate(652.984678, 132.700342)"><g/></g></g><g fill="#ffffff" fill-opacity="1"><g transform="translate(710.449347, 132.700342)"><g><path d="M 32.09375 0.796875 C 22.476562 0.796875 13.953125 0.234375 6.515625 -0.890625 L 6.515625 -14.3125 C 14.546875 -13.519531 21.328125 -13.125 26.859375 -13.125 C 30.078125 -13.125 32.539062 -13.253906 34.25 -13.515625 C 35.96875 -13.785156 37.1875 -14.21875 37.90625 -14.8125 C 38.570312 -15.332031 38.984375 -15.972656 39.140625 -16.734375 C 39.304688 -17.492188 39.390625 -18.5625 39.390625 -19.9375 C 39.390625 -21.582031 39.257812 -22.765625 39 -23.484375 C 38.738281 -24.210938 38.210938 -24.722656 37.421875 -25.015625 C 36.628906 -25.316406 35.25 -25.601562 33.28125 -25.875 L 20.734375 -27.453125 C 16.253906 -27.972656 12.847656 -29.101562 10.515625 -30.84375 C 8.179688 -32.59375 6.601562 -34.847656 5.78125 -37.609375 C 4.957031 -40.378906 4.546875 -43.835938 4.546875 -47.984375 C 4.546875 -53.835938 5.628906 -58.28125 7.796875 -61.3125 C 9.972656 -64.34375 12.882812 -66.332031 16.53125 -67.28125 C 20.1875 -68.238281 24.847656 -68.71875 30.515625 -68.71875 C 34.660156 -68.71875 38.457031 -68.550781 41.90625 -68.21875 C 45.363281 -67.894531 49.132812 -67.367188 53.21875 -66.640625 L 53.21875 -53.515625 C 45.382812 -54.367188 38.96875 -54.796875 33.96875 -54.796875 C 28.695312 -54.796875 25.273438 -54.398438 23.703125 -53.609375 C 22.835938 -53.210938 22.289062 -52.648438 22.0625 -51.921875 C 21.832031 -51.203125 21.71875 -50.1875 21.71875 -48.875 C 21.71875 -47.226562 21.832031 -46.054688 22.0625 -45.359375 C 22.289062 -44.671875 22.785156 -44.175781 23.546875 -43.875 C 24.304688 -43.582031 25.640625 -43.304688 27.546875 -43.046875 L 41.96875 -41.265625 C 44.863281 -40.941406 47.25 -40.347656 49.125 -39.484375 C 51 -38.628906 52.5625 -37.1875 53.8125 -35.15625 C 55.71875 -32.320312 56.671875 -27.8125 56.671875 -21.625 C 56.671875 -15.175781 55.648438 -10.320312 53.609375 -7.0625 C 51.566406 -3.800781 48.832031 -1.675781 45.40625 -0.6875 C 41.988281 0.300781 37.550781 0.796875 32.09375 0.796875 Z M 32.09375 0.796875 "/></g></g></g><g fill="#ffffff" fill-opacity="1"><g transform="translate(804.242849, 132.700342)"><g><path d="M 7.203125 0 L 7.203125 -67.921875 L 55.390625 -67.921875 L 55.390625 -54 L 24.390625 -54 L 24.390625 -41.265625 L 50.65625 -41.265625 L 50.65625 -27.34375 L 24.390625 -27.34375 L 24.390625 -13.921875 L 55.390625 -13.921875 L 55.390625 0 Z M 7.203125 0 "/></g></g></g><g fill="#ffffff" fill-opacity="1"><g transform="translate(897.542703, 132.700342)"><g><path d="M 45.21875 0 L 36.328125 -23.796875 L 24.390625 -23.796875 L 24.390625 0 L 7.203125 0 L 7.203125 -67.921875 L 39.796875 -67.921875 C 46.046875 -67.921875 50.765625 -67.050781 53.953125 -65.3125 C 57.148438 -63.570312 59.257812 -61.171875 60.28125 -58.109375 C 61.300781 -55.046875 61.8125 -50.945312 61.8125 -45.8125 C 61.8125 -41.070312 61.203125 -36.957031 59.984375 -33.46875 C 58.765625 -29.976562 56.34375 -27.445312 52.71875 -25.875 L 63.1875 0 Z M 33.28125 -37.421875 C 36.832031 -37.421875 39.347656 -37.617188 40.828125 -38.015625 C 42.304688 -38.410156 43.273438 -39.148438 43.734375 -40.234375 C 44.203125 -41.316406 44.4375 -43.144531 44.4375 -45.71875 C 44.4375 -48.34375 44.238281 -50.195312 43.84375 -51.28125 C 43.445312 -52.375 42.503906 -53.117188 41.015625 -53.515625 C 39.535156 -53.910156 37.019531 -54.109375 33.46875 -54.109375 L 24.390625 -54.109375 L 24.390625 -37.421875 Z M 33.28125 -37.421875 "/></g></g></g><g fill="#ffffff" fill-opacity="1"><g transform="translate(997.160668, 132.700342)"><g><path d="M 21.125 0 L 0.984375 -67.921875 L 18.5625 -67.921875 L 32.390625 -19.0625 L 33.171875 -19.0625 L 46.90625 -67.921875 L 64.171875 -67.921875 L 43.9375 0 Z M 21.125 0 "/></g></g></g><g fill="#ffffff" fill-opacity="1"><g transform="translate(1094.902857, 132.700342)"><g><path d="M 7.015625 0 L 7.015625 -67.921875 L 24.1875 -67.921875 L 24.1875 0 Z M 7.015625 0 "/></g></g></g><g fill="#ffffff" fill-opacity="1"><g transform="translate(1158.685637, 132.700342)"><g><path d="M 52.421875 -0.890625 C 50.191406 -0.429688 47.378906 -0.0351562 43.984375 0.296875 C 40.597656 0.628906 37.421875 0.796875 34.453125 0.796875 C 25.898438 0.796875 19.582031 -0.253906 15.5 -2.359375 C 11.414062 -4.472656 8.71875 -7.898438 7.40625 -12.640625 C 6.09375 -17.378906 5.4375 -24.488281 5.4375 -33.96875 C 5.4375 -43.3125 6.109375 -50.351562 7.453125 -55.09375 C 8.804688 -59.832031 11.519531 -63.285156 15.59375 -65.453125 C 19.675781 -67.628906 25.960938 -68.71875 34.453125 -68.71875 C 37.421875 -68.71875 40.550781 -68.535156 43.84375 -68.171875 C 47.132812 -67.816406 49.863281 -67.375 52.03125 -66.84375 L 52.03125 -53.8125 C 45.320312 -54.46875 40.878906 -54.796875 38.703125 -54.796875 C 33.304688 -54.796875 29.585938 -54.382812 27.546875 -53.5625 C 25.503906 -52.738281 24.203125 -51.023438 23.640625 -48.421875 C 23.085938 -45.828125 22.8125 -41.007812 22.8125 -33.96875 C 22.8125 -26.925781 23.085938 -22.101562 23.640625 -19.5 C 24.203125 -16.894531 25.503906 -15.179688 27.546875 -14.359375 C 29.585938 -13.535156 33.304688 -13.125 38.703125 -13.125 C 43.578125 -13.125 48.148438 -13.457031 52.421875 -14.125 Z M 52.421875 -0.890625 "/></g></g></g><g fill="#ffffff" fill-opacity="1"><g transform="translate(1247.937994, 132.700342)"><g><path d="M 7.203125 0 L 7.203125 -67.921875 L 55.390625 -67.921875 L 55.390625 -54 L 24.390625 -54 L 24.390625 -41.265625 L 50.65625 -41.265625 L 50.65625 -27.34375 L 24.390625 -27.34375 L 24.390625 -13.921875 L 55.390625 -13.921875 L 55.390625 0 Z M 7.203125 0 "/></g></g></g><g fill="#ffffff" fill-opacity="1"><g transform="translate(1341.237848, 132.700342)"><g><path d="M 32.09375 0.796875 C 22.476562 0.796875 13.953125 0.234375 6.515625 -0.890625 L 6.515625 -14.3125 C 14.546875 -13.519531 21.328125 -13.125 26.859375 -13.125 C 30.078125 -13.125 32.539062 -13.253906 34.25 -13.515625 C 35.96875 -13.785156 37.1875 -14.21875 37.90625 -14.8125 C 38.570312 -15.332031 38.984375 -15.972656 39.140625 -16.734375 C 39.304688 -17.492188 39.390625 -18.5625 39.390625 -19.9375 C 39.390625 -21.582031 39.257812 -22.765625 39 -23.484375 C 38.738281 -24.210938 38.210938 -24.722656 37.421875 -25.015625 C 36.628906 -25.316406 35.25 -25.601562 33.28125 -25.875 L 20.734375 -27.453125 C 16.253906 -27.972656 12.847656 -29.101562 10.515625 -30.84375 C 8.179688 -32.59375 6.601562 -34.847656 5.78125 -37.609375 C 4.957031 -40.378906 4.546875 -43.835938 4.546875 -47.984375 C 4.546875 -53.835938 5.628906 -58.28125 7.796875 -61.3125 C 9.972656 -64.34375 12.882812 -66.332031 16.53125 -67.28125 C 20.1875 -68.238281 24.847656 -68.71875 30.515625 -68.71875 C 34.660156 -68.71875 38.457031 -68.550781 41.90625 -68.21875 C 45.363281 -67.894531 49.132812 -67.367188 53.21875 -66.640625 L 53.21875 -53.515625 C 45.382812 -54.367188 38.96875 -54.796875 33.96875 -54.796875 C 28.695312 -54.796875 25.273438 -54.398438 23.703125 -53.609375 C 22.835938 -53.210938 22.289062 -52.648438 22.0625 -51.921875 C 21.832031 -51.203125 21.71875 -50.1875 21.71875 -48.875 C 21.71875 -47.226562 21.832031 -46.054688 22.0625 -45.359375 C 22.289062 -44.671875 22.785156 -44.175781 23.546875 -43.875 C 24.304688 -43.582031 25.640625 -43.304688 27.546875 -43.046875 L 41.96875 -41.265625 C 44.863281 -40.941406 47.25 -40.347656 49.125 -39.484375 C 51 -38.628906 52.5625 -37.1875 53.8125 -35.15625 C 55.71875 -32.320312 56.671875 -27.8125 56.671875 -21.625 C 56.671875 -15.175781 55.648438 -10.320312 53.609375 -7.0625 C 51.566406 -3.800781 48.832031 -1.675781 45.40625 -0.6875 C 41.988281 0.300781 37.550781 0.796875 32.09375 0.796875 Z M 32.09375 0.796875 "/></g></g></g></g></g><g transform="matrix(1, 0, 0, 1, 153, 724)"><g clip-path="url(#56624eea48)"><g clip-path="url(#c3e499fa03)"><g fill="#000000" fill-opacity="1"><g transform="translate(20.72021, 428.734082)"><g><path d="M 254.789062 4.292969 L 182 -318.941406 L 201.066406 -323.234375 L 200.40625 -303.699219 L 140.339844 -305.734375 C 130.710938 -306.011719 122.863281 -305.199219 116.800781 -303.304688 C 112.40625 -301.933594 109.238281 -300.054688 107.304688 -297.675781 C 103.054688 -292.238281 98.886719 -281.363281 94.808594 -265.046875 L 23.480469 4.992188 L 4.582031 0 L 4.582031 -19.546875 L 60.574219 -19.546875 L 60.574219 0 L 41.605469 -4.710938 L 64.632812 -97.429688 L 213.285156 -97.429688 L 233.410156 -4.121094 L 214.300781 0 L 214.300781 -19.546875 L 273.859375 -19.546875 L 273.859375 0 Z M 298.296875 19.546875 L 198.523438 19.546875 L 178.398438 -73.761719 L 197.503906 -77.882812 L 197.503906 -58.335938 L 79.917969 -58.335938 L 79.917969 -77.882812 L 98.890625 -73.171875 L 75.859375 19.546875 L -20.800781 19.546875 L 56.882812 -274.527344 C 62.304688 -296.21875 69 -312.152344 76.964844 -322.328125 C 89.84375 -338.179688 111.410156 -345.671875 141.664062 -344.808594 L 216.820312 -342.257812 L 292.929688 -4.292969 Z M 108.953125 -273.804688 C 113.605469 -284.035156 120.652344 -289.824219 130.09375 -291.171875 L 131.46875 -291.371094 L 170.945312 -291.371094 L 211.164062 -109.746094 L 67.609375 -109.746094 L 108.21875 -272.183594 Z M 144.542969 -257.625 L 126.75 -265.714844 L 145.710938 -260.972656 L 111.605469 -124.554688 L 92.644531 -129.292969 L 92.644531 -148.839844 L 186.816406 -148.839844 L 186.816406 -129.292969 L 167.730469 -125.066406 L 136.171875 -267.597656 L 155.253906 -271.824219 L 155.253906 -252.277344 L 132.855469 -252.277344 L 132.855469 -271.824219 L 135.621094 -252.472656 C 138.734375 -252.917969 141.316406 -254.167969 143.371094 -256.21875 C 143.835938 -256.6875 144.214844 -257.140625 144.496094 -257.578125 Z M 144.542969 -257.625 "/></g></g></g></g><g fill="#ff751f" fill-opacity="1"><g transform="translate(20.72021, 428.734082)"><g><path d="M 273.859375 0 L 201.0625 -323.234375 L 141 -325.265625 C 117.25 -325.953125 100.960938 -320.863281 92.140625 -310 C 86.023438 -302.195312 80.59375 -288.789062 75.84375 -269.78125 L 4.578125 0 L 60.578125 0 L 79.921875 -77.875 L 197.5 -77.875 L 214.296875 0 Z M 126.75 -265.71875 C 128.445312 -269.445312 130.484375 -271.484375 132.859375 -271.828125 L 155.25 -271.828125 L 186.8125 -129.296875 L 92.640625 -129.296875 Z M 126.75 -265.71875 "/></g></g></g></g></g><g transform="matrix(1, 0, 0, 1, 463, 673)"><g clip-path="url(#4e34e4fd0d)"><g fill="#000000" fill-opacity="1"><g transform="translate(0.981582, 429.220062)"><g><path d="M 273.476562 -302.703125 L 255.71875 -302.703125 L 255.71875 -322.1875 L 273.015625 -313.214844 L 171.625 -117.765625 L 79.164062 -293.320312 C 77.398438 -296.628906 75.675781 -299.121094 74 -300.800781 C 73.269531 -301.527344 72.785156 -301.929688 72.539062 -302.003906 L 78.136719 -320.664062 L 73.410156 -301.761719 C 70.902344 -302.390625 67.574219 -302.703125 63.421875 -302.703125 L 30.949219 -302.703125 L 30.949219 -322.1875 L 50.433594 -322.1875 L 50.433594 0 L 30.949219 0 L 30.949219 -19.484375 L 83.71875 -19.484375 L 83.71875 0 L 64.234375 0 L 64.234375 -226.292969 L 101.089844 -235.113281 L 167.050781 -105.222656 L 149.675781 -96.402344 L 149.675781 -115.886719 L 184.6875 -115.886719 L 184.6875 -96.402344 L 167.378906 -105.351562 L 236.382812 -238.792969 L 273.175781 -229.84375 L 273.175781 0 L 253.691406 0 L 253.691406 -19.484375 L 311.023438 -19.484375 L 311.023438 0 L 291.542969 0 L 291.542969 -285.65625 C 291.542969 -291.84375 290.699219 -296.261719 289.015625 -298.898438 C 288.164062 -300.234375 286.621094 -301.15625 284.382812 -301.664062 C 281.382812 -302.359375 277.75 -302.703125 273.476562 -302.703125 Z M 273.476562 -341.671875 C 280.707031 -341.671875 287.222656 -341 293.019531 -339.664062 C 305.664062 -336.789062 315.28125 -330.1875 321.871094 -319.851562 C 327.628906 -310.820312 330.507812 -299.421875 330.507812 -285.65625 L 330.507812 19.484375 L 234.207031 19.484375 L 234.207031 -229.84375 L 253.691406 -229.84375 L 270.996094 -220.894531 L 196.546875 -76.917969 L 137.71875 -76.917969 L 66.347656 -217.46875 L 83.71875 -226.292969 L 103.203125 -226.292969 L 103.203125 19.484375 L 11.46875 19.484375 L 11.46875 -341.671875 L 63.421875 -341.671875 C 70.773438 -341.671875 77.25 -340.96875 82.863281 -339.566406 L 83.300781 -339.457031 L 83.734375 -339.328125 C 95.683594 -335.742188 105.652344 -326.460938 113.640625 -311.480469 L 188.734375 -168.90625 L 171.496094 -159.824219 L 154.199219 -168.796875 L 243.878906 -341.671875 Z M 273.476562 -341.671875 "/></g></g></g><g fill="#ff751f" fill-opacity="1"><g transform="translate(0.981582, 429.220062)"><g><path d="M 273.484375 -322.1875 L 255.71875 -322.1875 L 171.5 -159.828125 L 96.40625 -302.40625 C 90.988281 -312.550781 84.898438 -318.640625 78.140625 -320.671875 C 74.078125 -321.679688 69.171875 -322.1875 63.421875 -322.1875 L 30.953125 -322.1875 L 30.953125 0 L 83.71875 0 L 83.71875 -226.296875 L 149.671875 -96.40625 L 184.6875 -96.40625 L 253.6875 -229.84375 L 253.6875 0 L 311.03125 0 L 311.03125 -285.65625 C 311.03125 -305.613281 303.585938 -317.285156 288.703125 -320.671875 C 284.304688 -321.679688 279.234375 -322.1875 273.484375 -322.1875 Z M 273.484375 -322.1875 "/></g></g></g></g></g><path stroke-linecap="round" transform="matrix(0.00823386, 0.749955, -0.749955, 0.00823386, 655.379089, 791.736128)" fill="none" stroke-linejoin="miter" d="M 26.999733 27.001415 L 115.604055 27.000198 " stroke="#000000" stroke-width="54" stroke-opacity="1" stroke-miterlimit="4"/><path fill="#000000" d="M 562.570312 536.25 C 586.058594 539.402344 594.671875 567.261719 602.699219 580.671875 C 613.484375 598.691406 635.578125 604.253906 651.957031 592.859375 C 668.097656 581.628906 671.917969 557.160156 657.355469 542.28125 C 645.171875 529.832031 633.949219 518.085938 623.640625 502.261719 C 613.992188 518.191406 608.78125 533.226562 601.683594 549.171875 C 600.59375 551.621094 596.804688 551.78125 595.136719 550.65625 C 593.523438 549.574219 590.957031 547.222656 591.539062 543.527344 L 599.695312 491.453125 C 600.472656 486.5 602.765625 482.117188 607.722656 480.523438 C 618.5 477.0625 610.582031 464.699219 614.945312 464.363281 C 629.039062 463.273438 641.941406 463.449219 656.164062 464.152344 C 655.46875 489.648438 681.707031 494.050781 701.214844 517.585938 C 729.230469 551.386719 724.078125 602.371094 689.515625 629.648438 C 668.9375 645.894531 642.109375 650.261719 617.316406 643.425781 C 585.136719 634.558594 565.089844 607.015625 563.609375 573.914062 C 563.128906 563.183594 560.316406 553.890625 554.882812 545.03125 C 552.535156 541.207031 556.410156 535.425781 562.574219 536.25 Z M 562.570312 536.25 " fill-opacity="1" fill-rule="nonzero"/><g clip-path="url(#24fa2848d2)"><path fill="#000000" d="M 675.910156 452.882812 L 598.339844 453.058594 C 591.601562 453.074219 587.324219 448.660156 585.257812 442.617188 L 542.144531 316.425781 C 539.9375 309.960938 540.90625 304.925781 544.472656 299.359375 L 585.519531 235.304688 C 587.933594 231.539062 591.003906 227.039062 596.074219 227.023438 L 675.183594 226.777344 C 679.375 226.765625 682.695312 228.898438 684.792969 232.1875 L 729.972656 303.269531 C 732.589844 307.390625 731.605469 312.949219 730.070312 317.417969 L 686.128906 445.429688 C 683.941406 448.804688 681.613281 452.875 675.917969 452.886719 Z M 651.722656 308.382812 C 651.722656 299.6875 644.667969 292.636719 635.96875 292.636719 C 627.273438 292.636719 620.21875 299.6875 620.21875 308.382812 C 620.21875 317.074219 627.273438 324.125 635.96875 324.125 C 644.667969 324.125 651.722656 317.074219 651.722656 308.382812 Z M 651.652344 408.609375 C 651.652344 400.015625 644.6875 393.058594 636.097656 393.058594 C 627.507812 393.058594 620.542969 400.019531 620.542969 408.609375 C 620.542969 417.195312 627.507812 424.15625 636.097656 424.15625 C 644.6875 424.15625 651.652344 417.195312 651.652344 408.609375 Z M 651.652344 408.609375 " fill-opacity="1" fill-rule="nonzero"/></g><g clip-path="url(#93c8c5b529)"><path fill="#000000" d="M 576.878906 228.425781 C 575.558594 235.898438 568.585938 241.851562 564.464844 248.082031 C 562.726562 219.53125 563.980469 191.828125 563.796875 162.089844 C 563.769531 158.066406 576.667969 157.191406 576.851562 160.605469 C 578.085938 183.078125 578.5 204.875 576.878906 228.425781 Z M 576.878906 228.425781 " fill-opacity="1" fill-rule="nonzero"/></g><g clip-path="url(#9afdc18c71)"><path fill="#000000" d="M 698.289062 234.265625 C 696.105469 230.960938 693.945312 227.355469 693.953125 222.90625 L 694.101562 160.449219 C 698.378906 158.027344 703.90625 158.453125 708.390625 160.082031 L 708.253906 249.335938 L 698.285156 234.261719 Z M 698.289062 234.265625 " fill-opacity="1" fill-rule="nonzero"/></g><path stroke-linecap="round" transform="matrix(0.000596341, 0.75, -0.75, 0.000596341, 646.379858, 587.164033)" fill="none" stroke-linejoin="miter" d="M 14.998537 14.997575 L 293.170523 15.000006 " stroke="#000000" stroke-width="30" stroke-opacity="1" stroke-miterlimit="4"/><g transform="matrix(1, 0, 0, 1, 804, 726)"><g clip-path="url(#b6ef6be76c)"><g clip-path="url(#7db1bded68)"><g fill="#000000" fill-opacity="1"><g transform="translate(21.792634, 429.107012)"><g><path d="M 253.964844 4.28125 L 181.40625 -317.90625 L 200.414062 -322.1875 L 199.753906 -302.714844 L 139.882812 -304.746094 C 130.285156 -305.019531 122.464844 -304.210938 116.421875 -302.320312 C 112.039062 -300.953125 108.886719 -299.082031 106.957031 -296.707031 C 102.71875 -291.289062 98.566406 -280.449219 94.5 -264.1875 L 23.402344 4.976562 L 4.566406 0 L 4.566406 -19.484375 L 60.378906 -19.484375 L 60.378906 0 L 41.46875 -4.695312 L 64.421875 -97.113281 L 212.59375 -97.113281 L 232.652344 -4.109375 L 213.609375 0 L 213.609375 -19.484375 L 272.972656 -19.484375 L 272.972656 0 Z M 297.328125 19.484375 L 197.878906 19.484375 L 177.820312 -73.519531 L 196.863281 -77.628906 L 196.863281 -58.144531 L 79.660156 -58.144531 L 79.660156 -77.628906 L 98.566406 -72.933594 L 75.613281 19.484375 L -20.730469 19.484375 L 56.699219 -273.636719 C 62.105469 -295.257812 68.777344 -311.140625 76.714844 -321.28125 C 89.550781 -337.082031 111.050781 -344.550781 141.203125 -343.6875 L 216.117188 -341.148438 L 291.976562 -4.28125 Z M 108.601562 -272.914062 C 113.238281 -283.113281 120.257812 -288.882812 129.671875 -290.230469 L 131.042969 -290.425781 L 170.390625 -290.425781 L 210.476562 -109.390625 L 67.390625 -109.390625 L 107.867188 -271.300781 Z M 144.074219 -256.789062 L 126.339844 -264.851562 L 145.238281 -260.128906 L 111.246094 -124.148438 L 92.34375 -128.875 L 92.34375 -148.359375 L 186.207031 -148.359375 L 186.207031 -128.875 L 167.1875 -124.664062 L 135.730469 -266.730469 L 154.75 -270.941406 L 154.75 -251.457031 L 132.425781 -251.457031 L 132.425781 -270.941406 L 135.183594 -251.652344 C 138.285156 -252.097656 140.859375 -253.34375 142.90625 -255.390625 C 143.371094 -255.855469 143.746094 -256.304688 144.027344 -256.742188 Z M 144.074219 -256.789062 "/></g></g></g></g><g fill="#000000" fill-opacity="1"><g transform="translate(298.822734, 429.107012)"><g><path d="M 215.128906 -34.300781 L 93.628906 -34.300781 L 91.902344 -34.613281 C 86.050781 -35.675781 81.183594 -38.152344 77.296875 -42.035156 C 73.003906 -46.328125 70.542969 -51.628906 69.914062 -57.933594 L 69.816406 -58.898438 L 69.816406 -264.074219 L 70.128906 -265.800781 C 71.195312 -271.652344 73.667969 -276.523438 77.550781 -280.40625 C 81.84375 -284.699219 87.144531 -287.160156 93.449219 -287.792969 L 94.414062 -287.886719 L 215.128906 -287.886719 L 215.128906 -268.40625 L 195.644531 -268.40625 L 195.644531 -322.1875 L 215.128906 -322.1875 L 215.128906 -302.703125 L 108.070312 -302.703125 C 87.847656 -302.703125 72.945312 -298.960938 63.363281 -291.480469 C 54.789062 -284.789062 49.953125 -274.078125 48.859375 -259.347656 L 48.832031 -258.996094 L 48.792969 -258.640625 C 48.535156 -256.3125 48.402344 -253.984375 48.402344 -251.660156 L 48.402344 -70.527344 C 48.660156 -53.085938 53.25 -40.386719 62.175781 -32.433594 C 71.710938 -23.9375 87.050781 -19.621094 108.199219 -19.484375 L 215.128906 -19.484375 L 215.128906 0 L 195.644531 0 L 195.644531 -53.78125 L 215.128906 -53.78125 Z M 234.613281 -73.265625 L 234.613281 19.484375 L 107.945312 19.484375 C 77 19.28125 53.105469 11.675781 36.253906 -3.339844 C 18.796875 -18.890625 9.859375 -41.289062 9.4375 -70.527344 L 9.4375 -251.660156 C 9.4375 -255.425781 9.644531 -259.1875 10.0625 -262.945312 L 29.429688 -260.792969 L 10 -262.238281 C 11.945312 -288.4375 21.742188 -308.425781 39.382812 -322.195312 C 56.015625 -335.179688 78.910156 -341.671875 108.070312 -341.671875 L 234.613281 -341.671875 L 234.613281 -248.921875 L 95.386719 -248.921875 L 95.386719 -268.40625 L 97.328125 -249.019531 C 100.25 -249.308594 102.839844 -250.589844 105.105469 -252.851562 C 106.960938 -254.707031 108.082031 -256.699219 108.46875 -258.832031 L 89.300781 -262.316406 L 108.78125 -262.316406 L 108.78125 -59.871094 L 89.300781 -59.871094 L 108.6875 -61.808594 C 108.394531 -64.730469 107.117188 -67.324219 104.851562 -69.589844 C 102.996094 -71.441406 101.003906 -72.5625 98.871094 -72.953125 L 95.386719 -53.78125 L 95.386719 -73.265625 Z M 234.613281 -73.265625 "/></g></g></g><g fill="#ff751f" fill-opacity="1"><g transform="translate(21.792634, 429.107012)"><g><path d="M 272.96875 0 L 200.421875 -322.1875 L 140.546875 -324.21875 C 116.867188 -324.894531 100.632812 -319.820312 91.84375 -309 C 85.75 -301.21875 80.332031 -287.859375 75.59375 -268.921875 L 4.5625 0 L 60.375 0 L 79.65625 -77.625 L 196.859375 -77.625 L 213.609375 0 Z M 126.34375 -264.859375 C 128.03125 -268.578125 130.054688 -270.601562 132.421875 -270.9375 L 154.75 -270.9375 L 186.203125 -128.875 L 92.34375 -128.875 Z M 126.34375 -264.859375 "/></g></g><g transform="translate(298.822728, 429.107012)"><g><path d="M 215.125 -53.78125 L 95.390625 -53.78125 C 91.671875 -54.457031 89.640625 -56.488281 89.296875 -59.875 L 89.296875 -262.3125 C 89.972656 -266.039062 92.003906 -268.070312 95.390625 -268.40625 L 215.125 -268.40625 L 215.125 -322.1875 L 108.078125 -322.1875 C 58.691406 -322.1875 32.472656 -301.722656 29.421875 -260.796875 C 29.085938 -257.753906 28.921875 -254.707031 28.921875 -251.65625 L 28.921875 -70.53125 C 29.597656 -23.84375 55.984375 -0.332031 108.078125 0 L 215.125 0 Z M 215.125 -53.78125 "/></g></g></g></g></g></svg>