<svg xmlns="http://www.w3.org/2000/svg" xmlns:xlink="http://www.w3.org/1999/xlink" width="2000" zoomAndPan="magnify" viewBox="0 0 1500 1499.999933" height="2000" preserveAspectRatio="xMidYMid meet" version="1.0"><defs><g/><clipPath id="7d4df21f83"><rect x="0" width="862" y="0" height="117"/></clipPath><clipPath id="cdad4fc911"><path d="M 626.683594 441 L 739.183594 441 L 739.183594 575 L 626.683594 575 Z M 626.683594 441 " clip-rule="nonzero"/></clipPath></defs><g transform="matrix(1, 0, 0, 1, 319, 1005)"><g clip-path="url(#7d4df21f83)"><path fill="#000000" d="M 30.019531 1.695312 L 831.976562 1.695312 C 847.816406 1.695312 860.65625 14.535156 860.65625 30.375 L 860.65625 87.734375 C 860.65625 103.574219 847.816406 116.414062 831.976562 116.414062 L 30.019531 116.414062 C 14.179688 116.414062 1.339844 103.574219 1.339844 87.734375 L 1.339844 30.375 C 1.339844 14.535156 14.179688 1.695312 30.019531 1.695312 Z M 30.019531 1.695312 " fill-opacity="1" fill-rule="nonzero"/><g fill="#ffffff" fill-opacity="1"><g transform="translate(34.256203, 78.755674)"><g><path d="M 4.25 0 L 4.25 -40.078125 L 14.390625 -40.078125 L 14.390625 -8.625 L 30.296875 -8.625 L 30.296875 0 Z M 4.25 0 "/></g></g></g><g fill="#ffffff" fill-opacity="1"><g transform="translate(85.108379, 78.755674)"><g><path d="M 4.140625 0 L 4.140625 -40.078125 L 14.265625 -40.078125 L 14.265625 0 Z M 4.140625 0 "/></g></g></g><g fill="#ffffff" fill-opacity="1"><g transform="translate(122.739347, 78.755674)"><g><path d="M 4.25 0 L 4.25 -40.078125 L 31.515625 -40.078125 L 31.515625 -31.859375 L 14.390625 -31.859375 L 14.390625 -23.0625 L 29.296875 -23.0625 L 29.296875 -14.859375 L 14.390625 -14.859375 L 14.390625 0 Z M 4.25 0 "/></g></g></g><g fill="#ffffff" fill-opacity="1"><g transform="translate(175.571798, 78.755674)"><g><path d="M 12 0 L 12 -31.453125 L 0.9375 -31.453125 L 0.9375 -40.078125 L 33.265625 -40.078125 L 33.265625 -31.453125 L 22.140625 -31.453125 L 22.140625 0 Z M 12 0 "/></g></g></g><g fill="#ffffff" fill-opacity="1"><g transform="translate(228.928429, 78.755674)"><g><path d="M 4.140625 0 L 4.140625 -40.078125 L 14.265625 -40.078125 L 14.265625 0 Z M 4.140625 0 "/></g></g></g><g fill="#ffffff" fill-opacity="1"><g transform="translate(266.559409, 78.755674)"><g><path d="M 27.953125 0 L 14.09375 -22.890625 L 13.8125 -22.890625 L 13.8125 0 L 4.140625 0 L 4.140625 -40.078125 L 14.5625 -40.078125 L 27.4375 -19.28125 L 27.734375 -19.28125 L 27.734375 -40.078125 L 37.453125 -40.078125 L 37.453125 0 Z M 27.953125 0 "/></g></g></g><g fill="#ffffff" fill-opacity="1"><g transform="translate(327.371159, 78.755674)"><g><path d="M 20.09375 -15.734375 L 20.09375 -23.421875 L 35.0625 -23.421875 L 35.0625 -0.875 C 33.039062 -0.488281 30.71875 -0.171875 28.09375 0.078125 C 25.476562 0.335938 23.179688 0.46875 21.203125 0.46875 C 16.035156 0.46875 12.207031 -0.0625 9.71875 -1.125 C 7.238281 -2.195312 5.53125 -4.140625 4.59375 -6.953125 C 3.664062 -9.773438 3.203125 -14.132812 3.203125 -20.03125 C 3.203125 -25.550781 3.675781 -29.738281 4.625 -32.59375 C 5.582031 -35.445312 7.320312 -37.484375 9.84375 -38.703125 C 12.363281 -39.929688 16.128906 -40.546875 21.140625 -40.546875 C 24.015625 -40.546875 26.867188 -40.367188 29.703125 -40.015625 C 32.535156 -39.671875 34.265625 -39.398438 34.890625 -39.203125 L 34.890625 -31.515625 C 30.546875 -32.054688 27.207031 -32.328125 24.875 -32.328125 C 21.03125 -32.328125 18.398438 -32.125 16.984375 -31.71875 C 15.566406 -31.3125 14.625 -30.3125 14.15625 -28.71875 C 13.6875 -27.125 13.453125 -24.226562 13.453125 -20.03125 C 13.453125 -16.226562 13.625 -13.5 13.96875 -11.84375 C 14.320312 -10.195312 15.050781 -9.0625 16.15625 -8.4375 C 17.269531 -7.820312 19.085938 -7.515625 21.609375 -7.515625 C 23.003906 -7.515625 24.34375 -7.570312 25.625 -7.6875 L 25.625 -15.734375 Z M 20.09375 -15.734375 "/></g></g></g><g fill="#ffffff" fill-opacity="1"><g transform="translate(385.561992, 78.755674)"><g/></g></g><g fill="#ffffff" fill-opacity="1"><g transform="translate(419.465383, 78.755674)"><g><path d="M 18.9375 0.46875 C 13.257812 0.46875 8.226562 0.132812 3.84375 -0.53125 L 3.84375 -8.453125 C 8.582031 -7.984375 12.582031 -7.75 15.84375 -7.75 C 17.75 -7.75 19.207031 -7.828125 20.21875 -7.984375 C 21.226562 -8.140625 21.945312 -8.390625 22.375 -8.734375 C 22.757812 -9.046875 23 -9.425781 23.09375 -9.875 C 23.1875 -10.320312 23.234375 -10.953125 23.234375 -11.765625 C 23.234375 -12.734375 23.15625 -13.429688 23 -13.859375 C 22.851562 -14.285156 22.546875 -14.585938 22.078125 -14.765625 C 21.609375 -14.941406 20.789062 -15.109375 19.625 -15.265625 L 12.234375 -16.1875 C 9.585938 -16.5 7.578125 -17.171875 6.203125 -18.203125 C 4.828125 -19.234375 3.894531 -20.5625 3.40625 -22.1875 C 2.914062 -23.820312 2.671875 -25.863281 2.671875 -28.3125 C 2.671875 -31.769531 3.3125 -34.390625 4.59375 -36.171875 C 5.882812 -37.960938 7.601562 -39.140625 9.75 -39.703125 C 11.90625 -40.265625 14.65625 -40.546875 18 -40.546875 C 20.445312 -40.546875 22.6875 -40.445312 24.71875 -40.25 C 26.757812 -40.050781 28.984375 -39.738281 31.390625 -39.3125 L 31.390625 -31.578125 C 26.773438 -32.078125 22.988281 -32.328125 20.03125 -32.328125 C 16.925781 -32.328125 14.910156 -32.09375 13.984375 -31.625 C 13.472656 -31.394531 13.148438 -31.066406 13.015625 -30.640625 C 12.878906 -30.210938 12.8125 -29.609375 12.8125 -28.828125 C 12.8125 -27.859375 12.878906 -27.171875 13.015625 -26.765625 C 13.148438 -26.359375 13.441406 -26.066406 13.890625 -25.890625 C 14.335938 -25.710938 15.125 -25.546875 16.25 -25.390625 L 24.75 -24.34375 C 26.457031 -24.15625 27.863281 -23.804688 28.96875 -23.296875 C 30.082031 -22.796875 31.007812 -21.941406 31.75 -20.734375 C 32.875 -19.066406 33.4375 -16.40625 33.4375 -12.75 C 33.4375 -8.945312 32.832031 -6.082031 31.625 -4.15625 C 30.425781 -2.238281 28.816406 -0.988281 26.796875 -0.40625 C 24.773438 0.175781 22.15625 0.46875 18.9375 0.46875 Z M 18.9375 0.46875 "/></g></g></g><g fill="#ffffff" fill-opacity="1"><g transform="translate(474.802301, 78.755674)"><g><path d="M 4.25 0 L 4.25 -40.078125 L 32.671875 -40.078125 L 32.671875 -31.859375 L 14.390625 -31.859375 L 14.390625 -24.34375 L 29.875 -24.34375 L 29.875 -16.140625 L 14.390625 -16.140625 L 14.390625 -8.21875 L 32.671875 -8.21875 L 32.671875 0 Z M 4.25 0 "/></g></g></g><g fill="#ffffff" fill-opacity="1"><g transform="translate(529.847975, 78.755674)"><g><path d="M 26.671875 0 L 21.4375 -14.03125 L 14.390625 -14.03125 L 14.390625 0 L 4.25 0 L 4.25 -40.078125 L 23.46875 -40.078125 C 27.164062 -40.078125 29.953125 -39.5625 31.828125 -38.53125 C 33.710938 -37.5 34.957031 -36.082031 35.5625 -34.28125 C 36.164062 -32.476562 36.46875 -30.0625 36.46875 -27.03125 C 36.46875 -24.226562 36.109375 -21.796875 35.390625 -19.734375 C 34.671875 -17.679688 33.242188 -16.191406 31.109375 -15.265625 L 37.28125 0 Z M 19.625 -22.078125 C 21.726562 -22.078125 23.210938 -22.191406 24.078125 -22.421875 C 24.953125 -22.660156 25.523438 -23.097656 25.796875 -23.734375 C 26.078125 -24.378906 26.21875 -25.457031 26.21875 -26.96875 C 26.21875 -28.519531 26.097656 -29.613281 25.859375 -30.25 C 25.628906 -30.894531 25.078125 -31.332031 24.203125 -31.5625 C 23.328125 -31.800781 21.84375 -31.921875 19.75 -31.921875 L 14.390625 -31.921875 L 14.390625 -22.078125 Z M 19.625 -22.078125 "/></g></g></g><g fill="#ffffff" fill-opacity="1"><g transform="translate(588.621249, 78.755674)"><g><path d="M 12.46875 0 L 0.578125 -40.078125 L 10.953125 -40.078125 L 19.109375 -11.25 L 19.578125 -11.25 L 27.671875 -40.078125 L 37.859375 -40.078125 L 25.921875 0 Z M 12.46875 0 "/></g></g></g><g fill="#ffffff" fill-opacity="1"><g transform="translate(646.287841, 78.755674)"><g><path d="M 4.140625 0 L 4.140625 -40.078125 L 14.265625 -40.078125 L 14.265625 0 Z M 4.140625 0 "/></g></g></g><g fill="#ffffff" fill-opacity="1"><g transform="translate(683.918833, 78.755674)"><g><path d="M 30.9375 -0.53125 C 29.613281 -0.25 27.953125 -0.015625 25.953125 0.171875 C 23.953125 0.367188 22.078125 0.46875 20.328125 0.46875 C 15.273438 0.46875 11.546875 -0.148438 9.140625 -1.390625 C 6.734375 -2.640625 5.140625 -4.660156 4.359375 -7.453125 C 3.585938 -10.253906 3.203125 -14.445312 3.203125 -20.03125 C 3.203125 -25.550781 3.597656 -29.707031 4.390625 -32.5 C 5.191406 -35.300781 6.796875 -37.34375 9.203125 -38.625 C 11.609375 -39.90625 15.316406 -40.546875 20.328125 -40.546875 C 22.078125 -40.546875 23.921875 -40.4375 25.859375 -40.21875 C 27.804688 -40.007812 29.421875 -39.75 30.703125 -39.4375 L 30.703125 -31.75 C 26.734375 -32.132812 24.109375 -32.328125 22.828125 -32.328125 C 19.648438 -32.328125 17.457031 -32.082031 16.25 -31.59375 C 15.050781 -31.113281 14.285156 -30.101562 13.953125 -28.5625 C 13.617188 -27.03125 13.453125 -24.1875 13.453125 -20.03125 C 13.453125 -15.882812 13.617188 -13.039062 13.953125 -11.5 C 14.285156 -9.96875 15.050781 -8.957031 16.25 -8.46875 C 17.457031 -7.988281 19.648438 -7.75 22.828125 -7.75 C 25.703125 -7.75 28.40625 -7.941406 30.9375 -8.328125 Z M 30.9375 -0.53125 "/></g></g></g><g fill="#ffffff" fill-opacity="1"><g transform="translate(736.576536, 78.755674)"><g><path d="M 4.25 0 L 4.25 -40.078125 L 32.671875 -40.078125 L 32.671875 -31.859375 L 14.390625 -31.859375 L 14.390625 -24.34375 L 29.875 -24.34375 L 29.875 -16.140625 L 14.390625 -16.140625 L 14.390625 -8.21875 L 32.671875 -8.21875 L 32.671875 0 Z M 4.25 0 "/></g></g></g><g fill="#ffffff" fill-opacity="1"><g transform="translate(791.62221, 78.755674)"><g><path d="M 18.9375 0.46875 C 13.257812 0.46875 8.226562 0.132812 3.84375 -0.53125 L 3.84375 -8.453125 C 8.582031 -7.984375 12.582031 -7.75 15.84375 -7.75 C 17.75 -7.75 19.207031 -7.828125 20.21875 -7.984375 C 21.226562 -8.140625 21.945312 -8.390625 22.375 -8.734375 C 22.757812 -9.046875 23 -9.425781 23.09375 -9.875 C 23.1875 -10.320312 23.234375 -10.953125 23.234375 -11.765625 C 23.234375 -12.734375 23.15625 -13.429688 23 -13.859375 C 22.851562 -14.285156 22.546875 -14.585938 22.078125 -14.765625 C 21.609375 -14.941406 20.789062 -15.109375 19.625 -15.265625 L 12.234375 -16.1875 C 9.585938 -16.5 7.578125 -17.171875 6.203125 -18.203125 C 4.828125 -19.234375 3.894531 -20.5625 3.40625 -22.1875 C 2.914062 -23.820312 2.671875 -25.863281 2.671875 -28.3125 C 2.671875 -31.769531 3.3125 -34.390625 4.59375 -36.171875 C 5.882812 -37.960938 7.601562 -39.140625 9.75 -39.703125 C 11.90625 -40.265625 14.65625 -40.546875 18 -40.546875 C 20.445312 -40.546875 22.6875 -40.445312 24.71875 -40.25 C 26.757812 -40.050781 28.984375 -39.738281 31.390625 -39.3125 L 31.390625 -31.578125 C 26.773438 -32.078125 22.988281 -32.328125 20.03125 -32.328125 C 16.925781 -32.328125 14.910156 -32.09375 13.984375 -31.625 C 13.472656 -31.394531 13.148438 -31.066406 13.015625 -30.640625 C 12.878906 -30.210938 12.8125 -29.609375 12.8125 -28.828125 C 12.8125 -27.859375 12.878906 -27.171875 13.015625 -26.765625 C 13.148438 -26.359375 13.441406 -26.066406 13.890625 -25.890625 C 14.335938 -25.710938 15.125 -25.546875 16.25 -25.390625 L 24.75 -24.34375 C 26.457031 -24.15625 27.863281 -23.804688 28.96875 -23.296875 C 30.082031 -22.796875 31.007812 -21.941406 31.75 -20.734375 C 32.875 -19.066406 33.4375 -16.40625 33.4375 -12.75 C 33.4375 -8.945312 32.832031 -6.082031 31.625 -4.15625 C 30.425781 -2.238281 28.816406 -0.988281 26.796875 -0.40625 C 24.773438 0.175781 22.15625 0.46875 18.9375 0.46875 Z M 18.9375 0.46875 "/></g></g></g></g></g><g fill="#000000" fill-opacity="1"><g transform="translate(410.002587, 987.607695)"><g><path d="M 150.324219 2.535156 L 107.375 -188.171875 L 118.628906 -190.703125 L 118.238281 -179.179688 L 82.796875 -180.378906 C 77.117188 -180.542969 72.488281 -180.0625 68.910156 -178.945312 C 66.316406 -178.136719 64.449219 -177.027344 63.308594 -175.625 C 60.800781 -172.417969 58.34375 -166 55.9375 -156.375 L 13.851562 2.945312 L 2.703125 0 L 2.703125 -11.53125 L 35.738281 -11.53125 L 35.738281 0 L 24.546875 -2.78125 L 38.132812 -57.480469 L 125.835938 -57.480469 L 137.707031 -2.429688 L 126.4375 0 L 126.4375 -11.53125 L 161.574219 -11.53125 L 161.574219 0 Z M 175.992188 11.53125 L 117.125 11.53125 L 105.25 -43.519531 L 116.523438 -45.949219 L 116.523438 -34.417969 L 47.152344 -34.417969 L 47.152344 -45.949219 L 58.34375 -43.167969 L 44.757812 11.53125 L -12.269531 11.53125 L 33.558594 -161.96875 C 36.757812 -174.765625 40.707031 -184.167969 45.40625 -190.167969 C 53.007812 -199.519531 65.730469 -203.941406 83.578125 -203.433594 L 127.921875 -201.929688 L 172.824219 -2.535156 Z M 64.28125 -161.539062 C 67.023438 -167.578125 71.183594 -170.992188 76.753906 -171.789062 L 77.566406 -171.90625 L 100.855469 -171.90625 L 124.582031 -64.75 L 39.886719 -64.75 L 63.847656 -160.585938 Z M 85.277344 -151.996094 L 74.78125 -156.769531 L 85.96875 -153.972656 L 65.847656 -73.484375 L 54.660156 -76.28125 L 54.660156 -87.8125 L 110.21875 -87.8125 L 110.21875 -76.28125 L 98.957031 -73.789062 L 80.339844 -157.878906 L 91.597656 -160.371094 L 91.597656 -148.839844 L 78.382812 -148.839844 L 78.382812 -160.371094 L 80.015625 -148.957031 C 81.851562 -149.21875 83.375 -149.953125 84.585938 -151.167969 C 84.863281 -151.441406 85.082031 -151.707031 85.25 -151.96875 Z M 85.277344 -151.996094 "/></g></g></g><g fill="#ff751f" fill-opacity="1"><g transform="translate(410.002587, 987.607695)"><g><path d="M 161.578125 0 L 118.625 -190.703125 L 83.1875 -191.90625 C 69.175781 -192.300781 59.566406 -189.296875 54.359375 -182.890625 C 50.753906 -178.285156 47.550781 -170.378906 44.75 -159.171875 L 2.703125 0 L 35.734375 0 L 47.15625 -45.953125 L 116.53125 -45.953125 L 126.4375 0 Z M 74.78125 -156.765625 C 75.78125 -158.972656 76.984375 -160.175781 78.390625 -160.375 L 91.59375 -160.375 L 110.21875 -76.28125 L 54.65625 -76.28125 Z M 74.78125 -156.765625 "/></g></g></g><g fill="#000000" fill-opacity="1"><g transform="translate(581.25292, 957.805146)"><g><path d="M 161.347656 -178.589844 L 150.871094 -178.589844 L 150.871094 -190.085938 L 161.074219 -184.792969 L 101.257812 -69.480469 L 46.707031 -173.054688 C 45.664062 -175.007812 44.648438 -176.476562 43.660156 -177.46875 C 43.230469 -177.898438 42.941406 -178.132812 42.796875 -178.179688 L 46.097656 -189.1875 L 43.3125 -178.035156 C 41.832031 -178.40625 39.867188 -178.589844 37.417969 -178.589844 L 18.261719 -178.589844 L 18.261719 -190.085938 L 29.753906 -190.085938 L 29.753906 0 L 18.261719 0 L 18.261719 -11.496094 L 49.390625 -11.496094 L 49.390625 0 L 37.898438 0 L 37.898438 -133.507812 L 59.640625 -138.714844 L 98.558594 -62.082031 L 88.308594 -56.875 L 88.308594 -68.371094 L 108.960938 -68.371094 L 108.960938 -56.875 L 98.753906 -62.15625 L 139.464844 -140.882812 L 161.167969 -135.605469 L 161.167969 0 L 149.675781 0 L 149.675781 -11.496094 L 183.5 -11.496094 L 183.5 0 L 172.003906 0 L 172.003906 -168.53125 C 172.003906 -172.183594 171.507812 -174.789062 170.515625 -176.347656 C 170.011719 -177.136719 169.101562 -177.679688 167.78125 -177.980469 C 166.011719 -178.386719 163.867188 -178.589844 161.347656 -178.589844 Z M 161.347656 -201.582031 C 165.613281 -201.582031 169.457031 -201.1875 172.875 -200.398438 C 180.335938 -198.703125 186.011719 -194.804688 189.898438 -188.707031 C 193.296875 -183.378906 194.996094 -176.65625 194.996094 -168.53125 L 194.996094 11.496094 L 138.179688 11.496094 L 138.179688 -135.605469 L 149.675781 -135.605469 L 159.882812 -130.324219 L 115.960938 -45.382812 L 81.253906 -45.382812 L 39.144531 -128.304688 L 49.390625 -133.507812 L 60.886719 -133.507812 L 60.886719 11.496094 L 6.765625 11.496094 L 6.765625 -201.582031 L 37.417969 -201.582031 C 41.753906 -201.582031 45.578125 -201.167969 48.886719 -200.339844 L 49.148438 -200.273438 L 49.402344 -200.199219 C 56.453125 -198.082031 62.332031 -192.605469 67.046875 -183.769531 L 111.351562 -99.652344 L 101.179688 -94.292969 L 90.976562 -99.585938 L 143.886719 -201.582031 Z M 161.347656 -201.582031 "/></g></g></g><g fill="#ff751f" fill-opacity="1"><g transform="translate(581.25292, 957.805146)"><g><path d="M 161.34375 -190.078125 L 150.875 -190.078125 L 101.171875 -94.296875 L 56.875 -178.40625 C 53.6875 -184.394531 50.09375 -187.988281 46.09375 -189.1875 C 43.695312 -189.78125 40.804688 -190.078125 37.421875 -190.078125 L 18.265625 -190.078125 L 18.265625 0 L 49.390625 0 L 49.390625 -133.515625 L 88.3125 -56.875 L 108.96875 -56.875 L 149.671875 -135.609375 L 149.671875 0 L 183.5 0 L 183.5 -168.53125 C 183.5 -180.300781 179.109375 -187.1875 170.328125 -189.1875 C 167.734375 -189.78125 164.738281 -190.078125 161.34375 -190.078125 Z M 161.34375 -190.078125 "/></g></g></g><path stroke-linecap="round" transform="matrix(0.00823386, 0.749955, -0.749955, 0.00823386, 694.22635, 774.624465)" fill="none" stroke-linejoin="miter" d="M 15.997907 15.999231 L 68.136477 15.998717 " stroke="#000000" stroke-width="32" stroke-opacity="1" stroke-miterlimit="4"/><path fill="#000000" d="M 639.417969 623.890625 C 653.277344 625.75 658.359375 642.1875 663.09375 650.097656 C 669.457031 660.730469 682.492188 664.011719 692.15625 657.289062 C 701.679688 650.664062 703.933594 636.226562 695.34375 627.449219 C 688.152344 620.105469 681.53125 613.171875 675.449219 603.835938 C 669.757812 613.234375 666.683594 622.105469 662.496094 631.511719 C 661.851562 632.957031 659.617188 633.050781 658.632812 632.390625 C 657.679688 631.75 656.167969 630.363281 656.511719 628.183594 L 661.320312 597.457031 C 661.78125 594.539062 663.132812 591.953125 666.058594 591.011719 C 672.417969 588.96875 667.746094 581.675781 670.320312 581.476562 C 678.636719 580.832031 686.25 580.9375 694.636719 581.351562 C 694.230469 596.394531 709.710938 598.992188 721.21875 612.878906 C 737.746094 632.820312 734.707031 662.898438 714.316406 678.996094 C 702.175781 688.578125 686.347656 691.15625 671.71875 687.121094 C 652.734375 681.890625 640.90625 665.640625 640.03125 646.109375 C 639.75 639.78125 638.089844 634.296875 634.882812 629.070312 C 633.5 626.8125 635.785156 623.402344 639.421875 623.890625 Z M 639.417969 623.890625 " fill-opacity="1" fill-rule="nonzero"/><g clip-path="url(#cdad4fc911)"><path fill="#000000" d="M 706.289062 574.703125 L 660.523438 574.808594 C 656.546875 574.816406 654.023438 572.210938 652.804688 568.644531 L 627.367188 494.195312 C 626.066406 490.378906 626.636719 487.410156 628.742188 484.125 L 652.957031 446.335938 C 654.382812 444.113281 656.195312 441.457031 659.1875 441.449219 L 705.859375 441.304688 C 708.335938 441.292969 710.292969 442.554688 711.527344 444.496094 L 738.183594 486.433594 C 739.730469 488.863281 739.148438 492.144531 738.242188 494.78125 L 712.320312 570.308594 C 711.027344 572.296875 709.65625 574.699219 706.292969 574.707031 Z M 692.015625 489.449219 C 692.015625 484.320312 687.855469 480.160156 682.726562 480.160156 C 677.59375 480.160156 673.433594 484.320312 673.433594 489.449219 C 673.433594 494.578125 677.59375 498.738281 682.726562 498.738281 C 687.855469 498.738281 692.015625 494.578125 692.015625 489.449219 Z M 691.976562 548.582031 C 691.976562 543.511719 687.867188 539.40625 682.800781 539.40625 C 677.730469 539.40625 673.621094 543.515625 673.621094 548.582031 C 673.621094 553.648438 677.730469 557.757812 682.800781 557.757812 C 687.867188 557.757812 691.976562 553.648438 691.976562 548.582031 Z M 691.976562 548.582031 " fill-opacity="1" fill-rule="nonzero"/></g><path fill="#000000" d="M 647.859375 442.273438 C 647.082031 446.683594 642.96875 450.195312 640.535156 453.871094 C 639.511719 437.027344 640.25 420.683594 640.140625 403.136719 C 640.128906 400.765625 647.734375 400.25 647.847656 402.261719 C 648.574219 415.519531 648.816406 428.378906 647.859375 442.273438 Z M 647.859375 442.273438 " fill-opacity="1" fill-rule="nonzero"/><path fill="#000000" d="M 719.492188 445.71875 C 718.203125 443.773438 716.929688 441.644531 716.933594 439.019531 L 717.019531 402.167969 C 719.542969 400.742188 722.804688 400.992188 725.453125 401.953125 L 725.371094 454.613281 L 719.488281 445.71875 Z M 719.492188 445.71875 " fill-opacity="1" fill-rule="nonzero"/><path stroke-linecap="round" transform="matrix(0.000596341, 0.75, -0.75, 0.000596341, 688.979806, 653.927204)" fill="none" stroke-linejoin="miter" d="M 9.001367 9.001069 L 172.813933 9.001111 " stroke="#000000" stroke-width="18" stroke-opacity="1" stroke-miterlimit="4"/><g fill="#000000" fill-opacity="1"><g transform="translate(794.716616, 989.007735)"><g><path d="M 149.835938 2.523438 L 107.027344 -187.5625 L 118.242188 -190.085938 L 117.851562 -178.597656 L 82.53125 -179.796875 C 76.867188 -179.957031 72.253906 -179.480469 68.6875 -178.367188 C 66.101562 -177.558594 64.242188 -176.453125 63.101562 -175.054688 C 60.601562 -171.855469 58.152344 -165.460938 55.753906 -155.867188 L 13.808594 2.9375 L 2.695312 0 L 2.695312 -11.496094 L 35.621094 -11.496094 L 35.621094 0 L 24.464844 -2.769531 L 38.007812 -57.296875 L 125.425781 -57.296875 L 137.261719 -2.421875 L 126.027344 0 L 126.027344 -11.496094 L 161.050781 -11.496094 L 161.050781 0 Z M 175.421875 11.496094 L 116.746094 11.496094 L 104.910156 -43.375 L 116.148438 -45.800781 L 116.148438 -34.304688 L 46.996094 -34.304688 L 46.996094 -45.800781 L 58.152344 -43.03125 L 44.613281 11.496094 L -12.230469 11.496094 L 33.449219 -161.441406 C 36.640625 -174.199219 40.578125 -183.570312 45.261719 -189.550781 C 52.835938 -198.875 65.515625 -203.28125 83.308594 -202.773438 L 127.507812 -201.273438 L 172.261719 -2.523438 Z M 64.074219 -161.015625 C 66.808594 -167.03125 70.953125 -170.4375 76.503906 -171.230469 L 77.3125 -171.347656 L 100.527344 -171.347656 L 124.179688 -64.539062 L 39.757812 -64.539062 L 63.640625 -160.0625 Z M 85.003906 -151.503906 L 74.539062 -156.257812 L 85.6875 -153.472656 L 65.632812 -73.246094 L 54.480469 -76.035156 L 54.480469 -87.53125 L 109.859375 -87.53125 L 109.859375 -76.035156 L 98.636719 -73.550781 L 80.078125 -157.367188 L 91.300781 -159.851562 L 91.300781 -148.355469 L 78.128906 -148.355469 L 78.128906 -159.851562 L 79.753906 -148.472656 C 81.585938 -148.734375 83.105469 -149.46875 84.3125 -150.675781 C 84.585938 -150.949219 84.808594 -151.21875 84.972656 -151.472656 Z M 85.003906 -151.503906 "/></g></g></g><g fill="#000000" fill-opacity="1"><g transform="translate(958.160689, 989.007735)"><g><path d="M 126.921875 -20.234375 L 55.242188 -20.234375 L 54.222656 -20.421875 C 50.769531 -21.050781 47.894531 -22.507812 45.605469 -24.800781 C 43.070312 -27.332031 41.621094 -30.460938 41.246094 -34.179688 L 41.191406 -34.75 L 41.191406 -155.800781 L 41.375 -156.820312 C 42.003906 -160.273438 43.464844 -163.144531 45.753906 -165.4375 C 48.289062 -167.96875 51.414062 -169.421875 55.132812 -169.792969 L 55.703125 -169.851562 L 126.921875 -169.851562 L 126.921875 -158.355469 L 115.429688 -158.355469 L 115.429688 -190.085938 L 126.921875 -190.085938 L 126.921875 -178.589844 L 63.761719 -178.589844 C 51.828125 -178.589844 43.035156 -176.382812 37.382812 -171.96875 C 32.324219 -168.019531 29.472656 -161.703125 28.824219 -153.011719 L 28.808594 -152.804688 L 28.785156 -152.59375 C 28.632812 -151.222656 28.558594 -149.847656 28.558594 -148.476562 L 28.558594 -41.609375 C 28.707031 -31.320312 31.417969 -23.828125 36.683594 -19.132812 C 42.308594 -14.121094 51.359375 -11.574219 63.835938 -11.496094 L 126.921875 -11.496094 L 126.921875 0 L 115.429688 0 L 115.429688 -31.730469 L 126.921875 -31.730469 Z M 138.417969 -43.226562 L 138.417969 11.496094 L 63.6875 11.496094 C 45.429688 11.375 31.332031 6.886719 21.390625 -1.96875 C 11.089844 -11.144531 5.816406 -24.359375 5.566406 -41.609375 L 5.566406 -148.476562 C 5.566406 -150.695312 5.691406 -152.917969 5.9375 -155.132812 L 17.363281 -153.863281 L 5.898438 -154.71875 C 7.046875 -170.175781 12.828125 -181.964844 23.234375 -190.089844 C 33.046875 -197.75 46.554688 -201.582031 63.761719 -201.582031 L 138.417969 -201.582031 L 138.417969 -146.859375 L 56.277344 -146.859375 L 56.277344 -158.355469 L 57.421875 -146.917969 C 59.144531 -147.089844 60.675781 -147.84375 62.011719 -149.179688 C 63.105469 -150.273438 63.765625 -151.449219 63.996094 -152.707031 L 52.683594 -154.761719 L 64.179688 -154.761719 L 64.179688 -35.324219 L 52.683594 -35.324219 L 64.125 -36.46875 C 63.949219 -38.191406 63.195312 -39.722656 61.859375 -41.054688 C 60.765625 -42.152344 59.589844 -42.8125 58.332031 -43.039062 L 56.277344 -31.730469 L 56.277344 -43.226562 Z M 138.417969 -43.226562 "/></g></g></g><g fill="#ff751f" fill-opacity="1"><g transform="translate(794.716616, 989.007735)"><g><path d="M 161.046875 0 L 118.234375 -190.078125 L 82.921875 -191.28125 C 68.953125 -191.675781 59.375 -188.679688 54.1875 -182.296875 C 50.59375 -177.710938 47.398438 -169.832031 44.609375 -158.65625 L 2.6875 0 L 35.625 0 L 47 -45.796875 L 116.140625 -45.796875 L 126.03125 0 Z M 74.53125 -156.265625 C 75.53125 -158.453125 76.726562 -159.644531 78.125 -159.84375 L 91.296875 -159.84375 L 109.859375 -76.03125 L 54.484375 -76.03125 Z M 74.53125 -156.265625 "/></g></g><g transform="translate(958.160686, 989.007735)"><g><path d="M 126.921875 -31.734375 L 56.28125 -31.734375 C 54.082031 -32.128906 52.882812 -33.328125 52.6875 -35.328125 L 52.6875 -154.765625 C 53.082031 -156.960938 54.28125 -158.160156 56.28125 -158.359375 L 126.921875 -158.359375 L 126.921875 -190.078125 L 63.765625 -190.078125 C 34.628906 -190.078125 19.160156 -178.003906 17.359375 -153.859375 C 17.160156 -152.066406 17.0625 -150.269531 17.0625 -148.46875 L 17.0625 -41.609375 C 17.457031 -14.066406 33.023438 -0.195312 63.765625 0 L 126.921875 0 Z M 126.921875 -31.734375 "/></g></g></g></svg>