<svg xmlns="http://www.w3.org/2000/svg" xmlns:xlink="http://www.w3.org/1999/xlink" width="250" zoomAndPan="magnify" viewBox="0 0 187.5 112.499997" height="150" preserveAspectRatio="xMidYMid meet" version="1.0"><defs><g/><clipPath id="562293f52d"><path d="M 0.164062 73 L 186.835938 73 L 186.835938 99 L 0.164062 99 Z M 0.164062 73 " clip-rule="nonzero"/></clipPath><clipPath id="4c7a872d94"><path d="M 0.164062 0.355469 L 186.777344 0.355469 L 186.777344 25.679688 L 0.164062 25.679688 Z M 0.164062 0.355469 " clip-rule="nonzero"/></clipPath><clipPath id="e8d47d023b"><rect x="0" width="187" y="0" height="26"/></clipPath><clipPath id="ebf8c5d936"><path d="M 0.128906 11 L 41.226562 11 L 41.226562 58 L 0.128906 58 Z M 0.128906 11 " clip-rule="nonzero"/></clipPath><clipPath id="cb0903bc1c"><rect x="0" width="42" y="0" height="74"/></clipPath><clipPath id="ebaab4b6fd"><rect x="0" width="45" y="0" height="74"/></clipPath><clipPath id="7e35138b2e"><path d="M 0.28125 11 L 42 11 L 42 59 L 0.28125 59 Z M 0.28125 11 " clip-rule="nonzero"/></clipPath><clipPath id="9c536e07e7"><rect x="0" width="70" y="0" height="74"/></clipPath></defs><g clip-path="url(#562293f52d)"><g transform="matrix(1, 0, 0, 1, 0, 73)"><g clip-path="url(#e8d47d023b)"><g clip-path="url(#4c7a872d94)"><path fill="#000000" d="M 6.617188 0.511719 L 180.382812 0.511719 C 183.816406 0.511719 186.597656 3.292969 186.597656 6.726562 L 186.597656 19.15625 C 186.597656 22.585938 183.816406 25.371094 180.382812 25.371094 L 6.617188 25.371094 C 3.1875 25.371094 0.402344 22.585938 0.402344 19.15625 L 0.402344 6.726562 C 0.402344 3.292969 3.1875 0.511719 6.617188 0.511719 Z M 6.617188 0.511719 " fill-opacity="1" fill-rule="nonzero"/></g><g fill="#ffffff" fill-opacity="1"><g transform="translate(7.536203, 17.210015)"><g><path d="M 0.921875 0 L 0.921875 -8.6875 L 3.125 -8.6875 L 3.125 -1.875 L 6.5625 -1.875 L 6.5625 0 Z M 0.921875 0 "/></g></g></g><g fill="#ffffff" fill-opacity="1"><g transform="translate(18.554655, 17.210015)"><g><path d="M 0.890625 0 L 0.890625 -8.6875 L 3.09375 -8.6875 L 3.09375 0 Z M 0.890625 0 "/></g></g></g><g fill="#ffffff" fill-opacity="1"><g transform="translate(26.708387, 17.210015)"><g><path d="M 0.921875 0 L 0.921875 -8.6875 L 6.828125 -8.6875 L 6.828125 -6.90625 L 3.125 -6.90625 L 3.125 -5 L 6.34375 -5 L 6.34375 -3.21875 L 3.125 -3.21875 L 3.125 0 Z M 0.921875 0 "/></g></g></g><g fill="#ffffff" fill-opacity="1"><g transform="translate(38.155917, 17.210015)"><g><path d="M 2.59375 0 L 2.59375 -6.8125 L 0.203125 -6.8125 L 0.203125 -8.6875 L 7.203125 -8.6875 L 7.203125 -6.8125 L 4.796875 -6.8125 L 4.796875 0 Z M 2.59375 0 "/></g></g></g><g fill="#ffffff" fill-opacity="1"><g transform="translate(49.717025, 17.210015)"><g><path d="M 0.890625 0 L 0.890625 -8.6875 L 3.09375 -8.6875 L 3.09375 0 Z M 0.890625 0 "/></g></g></g><g fill="#ffffff" fill-opacity="1"><g transform="translate(57.870759, 17.210015)"><g><path d="M 6.0625 0 L 3.0625 -4.96875 L 2.984375 -4.96875 L 2.984375 0 L 0.890625 0 L 0.890625 -8.6875 L 3.15625 -8.6875 L 5.953125 -4.171875 L 6.015625 -4.171875 L 6.015625 -8.6875 L 8.125 -8.6875 L 8.125 0 Z M 6.0625 0 "/></g></g></g><g fill="#ffffff" fill-opacity="1"><g transform="translate(71.047213, 17.210015)"><g><path d="M 4.359375 -3.40625 L 4.359375 -5.078125 L 7.59375 -5.078125 L 7.59375 -0.1875 C 7.15625 -0.101562 6.648438 -0.0351562 6.078125 0.015625 C 5.515625 0.0664062 5.019531 0.09375 4.59375 0.09375 C 3.476562 0.09375 2.648438 -0.0195312 2.109375 -0.25 C 1.566406 -0.476562 1.191406 -0.894531 0.984375 -1.5 C 0.785156 -2.113281 0.6875 -3.0625 0.6875 -4.34375 C 0.6875 -5.539062 0.789062 -6.445312 1 -7.0625 C 1.207031 -7.675781 1.582031 -8.113281 2.125 -8.375 C 2.675781 -8.644531 3.492188 -8.78125 4.578125 -8.78125 C 5.203125 -8.78125 5.820312 -8.742188 6.4375 -8.671875 C 7.050781 -8.597656 7.425781 -8.539062 7.5625 -8.5 L 7.5625 -6.828125 C 6.613281 -6.941406 5.890625 -7 5.390625 -7 C 4.554688 -7 3.984375 -6.953125 3.671875 -6.859375 C 3.367188 -6.773438 3.164062 -6.5625 3.0625 -6.21875 C 2.96875 -5.875 2.921875 -5.25 2.921875 -4.34375 C 2.921875 -3.519531 2.957031 -2.925781 3.03125 -2.5625 C 3.101562 -2.207031 3.257812 -1.960938 3.5 -1.828125 C 3.738281 -1.691406 4.132812 -1.625 4.6875 -1.625 C 4.988281 -1.625 5.28125 -1.640625 5.5625 -1.671875 L 5.5625 -3.40625 Z M 4.359375 -3.40625 "/></g></g></g><g fill="#ffffff" fill-opacity="1"><g transform="translate(83.655777, 17.210015)"><g/></g></g><g fill="#ffffff" fill-opacity="1"><g transform="translate(91.001832, 17.210015)"><g><path d="M 4.109375 0.09375 C 2.878906 0.09375 1.785156 0.0234375 0.828125 -0.109375 L 0.828125 -1.828125 C 1.859375 -1.722656 2.726562 -1.671875 3.4375 -1.671875 C 3.84375 -1.671875 4.15625 -1.6875 4.375 -1.71875 C 4.59375 -1.757812 4.75 -1.816406 4.84375 -1.890625 C 4.925781 -1.960938 4.976562 -2.046875 5 -2.140625 C 5.019531 -2.234375 5.03125 -2.367188 5.03125 -2.546875 C 5.03125 -2.753906 5.015625 -2.90625 4.984375 -3 C 4.953125 -3.09375 4.882812 -3.15625 4.78125 -3.1875 C 4.6875 -3.226562 4.507812 -3.269531 4.25 -3.3125 L 2.65625 -3.515625 C 2.082031 -3.578125 1.644531 -3.71875 1.34375 -3.9375 C 1.039062 -4.164062 0.835938 -4.457031 0.734375 -4.8125 C 0.628906 -5.164062 0.578125 -5.609375 0.578125 -6.140625 C 0.578125 -6.890625 0.710938 -7.457031 0.984375 -7.84375 C 1.265625 -8.226562 1.640625 -8.476562 2.109375 -8.59375 C 2.578125 -8.71875 3.175781 -8.78125 3.90625 -8.78125 C 4.4375 -8.78125 4.921875 -8.757812 5.359375 -8.71875 C 5.796875 -8.675781 6.28125 -8.609375 6.8125 -8.515625 L 6.8125 -6.84375 C 5.800781 -6.945312 4.976562 -7 4.34375 -7 C 3.664062 -7 3.226562 -6.953125 3.03125 -6.859375 C 2.914062 -6.804688 2.84375 -6.734375 2.8125 -6.640625 C 2.789062 -6.546875 2.78125 -6.414062 2.78125 -6.25 C 2.78125 -6.039062 2.789062 -5.890625 2.8125 -5.796875 C 2.84375 -5.710938 2.90625 -5.648438 3 -5.609375 C 3.101562 -5.578125 3.273438 -5.539062 3.515625 -5.5 L 5.359375 -5.28125 C 5.734375 -5.238281 6.039062 -5.160156 6.28125 -5.046875 C 6.519531 -4.941406 6.71875 -4.757812 6.875 -4.5 C 7.125 -4.132812 7.25 -3.554688 7.25 -2.765625 C 7.25 -1.941406 7.117188 -1.320312 6.859375 -0.90625 C 6.597656 -0.488281 6.25 -0.21875 5.8125 -0.09375 C 5.375 0.03125 4.804688 0.09375 4.109375 0.09375 Z M 4.109375 0.09375 "/></g></g></g><g fill="#ffffff" fill-opacity="1"><g transform="translate(102.99202, 17.210015)"><g><path d="M 0.921875 0 L 0.921875 -8.6875 L 7.078125 -8.6875 L 7.078125 -6.90625 L 3.125 -6.90625 L 3.125 -5.28125 L 6.484375 -5.28125 L 6.484375 -3.5 L 3.125 -3.5 L 3.125 -1.78125 L 7.078125 -1.78125 L 7.078125 0 Z M 0.921875 0 "/></g></g></g><g fill="#ffffff" fill-opacity="1"><g transform="translate(114.919103, 17.210015)"><g><path d="M 5.78125 0 L 4.640625 -3.046875 L 3.125 -3.046875 L 3.125 0 L 0.921875 0 L 0.921875 -8.6875 L 5.09375 -8.6875 C 5.882812 -8.6875 6.484375 -8.570312 6.890625 -8.34375 C 7.304688 -8.125 7.578125 -7.816406 7.703125 -7.421875 C 7.835938 -7.035156 7.90625 -6.515625 7.90625 -5.859375 C 7.90625 -5.253906 7.828125 -4.726562 7.671875 -4.28125 C 7.515625 -3.832031 7.203125 -3.507812 6.734375 -3.3125 L 8.078125 0 Z M 4.25 -4.78125 C 4.707031 -4.78125 5.03125 -4.804688 5.21875 -4.859375 C 5.40625 -4.910156 5.53125 -5.003906 5.59375 -5.140625 C 5.65625 -5.285156 5.6875 -5.519531 5.6875 -5.84375 C 5.6875 -6.175781 5.660156 -6.410156 5.609375 -6.546875 C 5.554688 -6.691406 5.4375 -6.789062 5.25 -6.84375 C 5.0625 -6.894531 4.738281 -6.921875 4.28125 -6.921875 L 3.125 -6.921875 L 3.125 -4.78125 Z M 4.25 -4.78125 "/></g></g></g><g fill="#ffffff" fill-opacity="1"><g transform="translate(127.653867, 17.210015)"><g><path d="M 2.703125 0 L 0.125 -8.6875 L 2.375 -8.6875 L 4.140625 -2.4375 L 4.234375 -2.4375 L 6 -8.6875 L 8.203125 -8.6875 L 5.625 0 Z M 2.703125 0 "/></g></g></g><g fill="#ffffff" fill-opacity="1"><g transform="translate(140.14884, 17.210015)"><g><path d="M 0.890625 0 L 0.890625 -8.6875 L 3.09375 -8.6875 L 3.09375 0 Z M 0.890625 0 "/></g></g></g><g fill="#ffffff" fill-opacity="1"><g transform="translate(148.302577, 17.210015)"><g><path d="M 6.703125 -0.109375 C 6.421875 -0.0546875 6.0625 -0.0078125 5.625 0.03125 C 5.1875 0.0703125 4.78125 0.09375 4.40625 0.09375 C 3.3125 0.09375 2.503906 -0.0351562 1.984375 -0.296875 C 1.460938 -0.566406 1.113281 -1.003906 0.9375 -1.609375 C 0.769531 -2.222656 0.6875 -3.132812 0.6875 -4.34375 C 0.6875 -5.539062 0.773438 -6.441406 0.953125 -7.046875 C 1.128906 -7.648438 1.476562 -8.085938 2 -8.359375 C 2.519531 -8.640625 3.320312 -8.78125 4.40625 -8.78125 C 4.78125 -8.78125 5.175781 -8.753906 5.59375 -8.703125 C 6.019531 -8.660156 6.375 -8.609375 6.65625 -8.546875 L 6.65625 -6.875 C 5.789062 -6.957031 5.222656 -7 4.953125 -7 C 4.253906 -7 3.773438 -6.945312 3.515625 -6.84375 C 3.253906 -6.738281 3.085938 -6.519531 3.015625 -6.1875 C 2.953125 -5.851562 2.921875 -5.238281 2.921875 -4.34375 C 2.921875 -3.4375 2.953125 -2.816406 3.015625 -2.484375 C 3.085938 -2.160156 3.253906 -1.941406 3.515625 -1.828125 C 3.773438 -1.722656 4.253906 -1.671875 4.953125 -1.671875 C 5.578125 -1.671875 6.160156 -1.71875 6.703125 -1.8125 Z M 6.703125 -0.109375 "/></g></g></g><g fill="#ffffff" fill-opacity="1"><g transform="translate(159.712244, 17.210015)"><g><path d="M 0.921875 0 L 0.921875 -8.6875 L 7.078125 -8.6875 L 7.078125 -6.90625 L 3.125 -6.90625 L 3.125 -5.28125 L 6.484375 -5.28125 L 6.484375 -3.5 L 3.125 -3.5 L 3.125 -1.78125 L 7.078125 -1.78125 L 7.078125 0 Z M 0.921875 0 "/></g></g></g><g fill="#ffffff" fill-opacity="1"><g transform="translate(171.639327, 17.210015)"><g><path d="M 4.109375 0.09375 C 2.878906 0.09375 1.785156 0.0234375 0.828125 -0.109375 L 0.828125 -1.828125 C 1.859375 -1.722656 2.726562 -1.671875 3.4375 -1.671875 C 3.84375 -1.671875 4.15625 -1.6875 4.375 -1.71875 C 4.59375 -1.757812 4.75 -1.816406 4.84375 -1.890625 C 4.925781 -1.960938 4.976562 -2.046875 5 -2.140625 C 5.019531 -2.234375 5.03125 -2.367188 5.03125 -2.546875 C 5.03125 -2.753906 5.015625 -2.90625 4.984375 -3 C 4.953125 -3.09375 4.882812 -3.15625 4.78125 -3.1875 C 4.6875 -3.226562 4.507812 -3.269531 4.25 -3.3125 L 2.65625 -3.515625 C 2.082031 -3.578125 1.644531 -3.71875 1.34375 -3.9375 C 1.039062 -4.164062 0.835938 -4.457031 0.734375 -4.8125 C 0.628906 -5.164062 0.578125 -5.609375 0.578125 -6.140625 C 0.578125 -6.890625 0.710938 -7.457031 0.984375 -7.84375 C 1.265625 -8.226562 1.640625 -8.476562 2.109375 -8.59375 C 2.578125 -8.71875 3.175781 -8.78125 3.90625 -8.78125 C 4.4375 -8.78125 4.921875 -8.757812 5.359375 -8.71875 C 5.796875 -8.675781 6.28125 -8.609375 6.8125 -8.515625 L 6.8125 -6.84375 C 5.800781 -6.945312 4.976562 -7 4.34375 -7 C 3.664062 -7 3.226562 -6.953125 3.03125 -6.859375 C 2.914062 -6.804688 2.84375 -6.734375 2.8125 -6.640625 C 2.789062 -6.546875 2.78125 -6.414062 2.78125 -6.25 C 2.78125 -6.039062 2.789062 -5.890625 2.8125 -5.796875 C 2.84375 -5.710938 2.90625 -5.648438 3 -5.609375 C 3.101562 -5.578125 3.273438 -5.539062 3.515625 -5.5 L 5.359375 -5.28125 C 5.734375 -5.238281 6.039062 -5.160156 6.28125 -5.046875 C 6.519531 -4.941406 6.71875 -4.757812 6.875 -4.5 C 7.125 -4.132812 7.25 -3.554688 7.25 -2.765625 C 7.25 -1.941406 7.117188 -1.320312 6.859375 -0.90625 C 6.597656 -0.488281 6.25 -0.21875 5.8125 -0.09375 C 5.375 0.03125 4.804688 0.09375 4.109375 0.09375 Z M 4.109375 0.09375 "/></g></g></g></g></g></g><g transform="matrix(1, 0, 0, 1, 17, 14)"><g clip-path="url(#cb0903bc1c)"><g clip-path="url(#ebf8c5d936)"><g fill="#000000" fill-opacity="1"><g transform="translate(2.831791, 55.377051)"><g><path d="M 32.570312 0.550781 L 23.265625 -40.773438 L 25.703125 -41.320312 L 25.617188 -38.824219 L 17.941406 -39.085938 C 16.710938 -39.121094 15.707031 -39.015625 14.929688 -38.773438 C 14.371094 -38.597656 13.964844 -38.359375 13.71875 -38.054688 C 13.175781 -37.359375 12.640625 -35.96875 12.121094 -33.882812 L 3 0.636719 L 0.585938 0 L 0.585938 -2.5 L 7.742188 -2.5 L 7.742188 0 L 5.320312 -0.601562 L 8.261719 -12.453125 L 27.265625 -12.453125 L 29.839844 -0.527344 L 27.394531 0 L 27.394531 -2.5 L 35.007812 -2.5 L 35.007812 0 Z M 38.132812 2.5 L 25.378906 2.5 L 22.804688 -9.429688 L 25.25 -9.957031 L 25.25 -7.457031 L 10.214844 -7.457031 L 10.214844 -9.957031 L 12.640625 -9.355469 L 9.699219 2.5 L -2.660156 2.5 L 7.273438 -35.09375 C 7.964844 -37.867188 8.820312 -39.90625 9.839844 -41.203125 C 11.484375 -43.230469 14.242188 -44.1875 18.109375 -44.078125 L 27.71875 -43.753906 L 37.445312 -0.550781 Z M 13.929688 -35 C 14.523438 -36.308594 15.421875 -37.050781 16.628906 -37.222656 L 16.804688 -37.246094 L 21.851562 -37.246094 L 26.996094 -14.03125 L 8.644531 -14.03125 L 13.835938 -34.792969 Z M 18.476562 -32.933594 L 16.203125 -33.96875 L 18.628906 -33.363281 L 14.265625 -15.921875 L 11.84375 -16.527344 L 11.84375 -19.027344 L 23.882812 -19.027344 L 23.882812 -16.527344 L 21.441406 -15.988281 L 17.40625 -34.207031 L 19.847656 -34.75 L 19.847656 -32.25 L 16.984375 -32.25 L 16.984375 -34.75 L 17.335938 -32.273438 C 17.734375 -32.332031 18.066406 -32.492188 18.328125 -32.753906 C 18.386719 -32.8125 18.4375 -32.871094 18.472656 -32.925781 Z M 18.476562 -32.933594 "/></g></g></g></g><g fill="#ff751f" fill-opacity="1"><g transform="translate(2.831791, 55.377051)"><g><path d="M 35.015625 0 L 25.703125 -41.328125 L 18.03125 -41.578125 C 14.988281 -41.671875 12.90625 -41.023438 11.78125 -39.640625 C 11 -38.640625 10.304688 -36.921875 9.703125 -34.484375 L 0.578125 0 L 7.75 0 L 10.21875 -9.953125 L 25.25 -9.953125 L 27.390625 0 Z M 16.203125 -33.96875 C 16.421875 -34.445312 16.679688 -34.707031 16.984375 -34.75 L 19.84375 -34.75 L 23.890625 -16.53125 L 11.84375 -16.53125 Z M 16.203125 -33.96875 "/></g></g></g></g></g><g transform="matrix(1, 0, 0, 1, 56, 14)"><g clip-path="url(#ebaab4b6fd)"><g fill="#000000" fill-opacity="1"><g transform="translate(0.937651, 55.398713)"><g><path d="M 34.960938 -38.695312 L 32.691406 -38.695312 L 32.691406 -41.1875 L 34.902344 -40.039062 L 21.941406 -15.054688 L 10.121094 -37.496094 C 9.894531 -37.917969 9.675781 -38.238281 9.460938 -38.453125 C 9.367188 -38.546875 9.304688 -38.597656 9.273438 -38.605469 L 9.988281 -40.992188 L 9.382812 -38.578125 C 9.0625 -38.65625 8.636719 -38.695312 8.109375 -38.695312 L 3.957031 -38.695312 L 3.957031 -41.1875 L 6.445312 -41.1875 L 6.445312 0 L 3.957031 0 L 3.957031 -2.492188 L 10.703125 -2.492188 L 10.703125 0 L 8.210938 0 L 8.210938 -28.929688 L 12.921875 -30.054688 L 21.355469 -13.453125 L 19.132812 -12.324219 L 19.132812 -14.8125 L 23.609375 -14.8125 L 23.609375 -12.324219 L 21.398438 -13.46875 L 30.21875 -30.527344 L 34.921875 -29.382812 L 34.921875 0 L 32.429688 0 L 32.429688 -2.492188 L 39.761719 -2.492188 L 39.761719 0 L 37.269531 0 L 37.269531 -36.515625 C 37.269531 -37.308594 37.160156 -37.871094 36.945312 -38.210938 C 36.835938 -38.382812 36.640625 -38.5 36.355469 -38.5625 C 35.972656 -38.652344 35.507812 -38.695312 34.960938 -38.695312 Z M 34.960938 -43.679688 C 35.882812 -43.679688 36.71875 -43.59375 37.457031 -43.421875 C 39.074219 -43.054688 40.304688 -42.210938 41.148438 -40.886719 C 41.882812 -39.734375 42.25 -38.277344 42.25 -36.515625 L 42.25 2.492188 L 29.941406 2.492188 L 29.941406 -29.382812 L 32.429688 -29.382812 L 34.644531 -28.238281 L 25.125 -9.832031 L 17.605469 -9.832031 L 8.480469 -27.800781 L 10.703125 -28.929688 L 13.191406 -28.929688 L 13.191406 2.492188 L 1.464844 2.492188 L 1.464844 -43.679688 L 8.109375 -43.679688 C 9.046875 -43.679688 9.875 -43.589844 10.59375 -43.410156 L 10.703125 -43.378906 C 12.230469 -42.921875 13.507812 -41.734375 14.527344 -39.816406 L 24.125 -21.59375 L 21.921875 -20.429688 L 19.710938 -21.578125 L 31.175781 -43.679688 Z M 34.960938 -43.679688 "/></g></g></g><g fill="#ff751f" fill-opacity="1"><g transform="translate(0.937651, 55.398713)"><g><path d="M 34.96875 -41.1875 L 32.6875 -41.1875 L 21.921875 -20.4375 L 12.328125 -38.65625 C 11.628906 -39.957031 10.847656 -40.738281 9.984375 -41 C 9.460938 -41.125 8.835938 -41.1875 8.109375 -41.1875 L 3.953125 -41.1875 L 3.953125 0 L 10.703125 0 L 10.703125 -28.9375 L 19.140625 -12.328125 L 23.609375 -12.328125 L 32.4375 -29.390625 L 32.4375 0 L 39.765625 0 L 39.765625 -36.515625 C 39.765625 -39.066406 38.8125 -40.5625 36.90625 -41 C 36.34375 -41.125 35.695312 -41.1875 34.96875 -41.1875 Z M 34.96875 -41.1875 "/></g></g></g></g></g><g transform="matrix(1, 0, 0, 1, 100, 14)"><g clip-path="url(#9c536e07e7)"><g clip-path="url(#7e35138b2e)"><g fill="#000000" fill-opacity="1"><g transform="translate(3.190135, 55.680403)"><g><path d="M 32.464844 0.546875 L 23.191406 -40.640625 L 25.621094 -41.1875 L 25.535156 -38.699219 L 17.882812 -38.957031 C 16.65625 -38.992188 15.65625 -38.890625 14.882812 -38.648438 C 14.324219 -38.472656 13.917969 -38.234375 13.671875 -37.929688 C 13.132812 -37.238281 12.601562 -35.851562 12.082031 -33.773438 L 2.992188 0.636719 L 0.582031 0 L 0.582031 -2.492188 L 7.71875 -2.492188 L 7.71875 0 L 5.300781 -0.601562 L 8.234375 -12.414062 L 27.175781 -12.414062 L 29.742188 -0.523438 L 27.308594 0 L 27.308594 -2.492188 L 34.894531 -2.492188 L 34.894531 0 Z M 38.007812 2.492188 L 25.296875 2.492188 L 22.730469 -9.398438 L 25.167969 -9.921875 L 25.167969 -7.433594 L 10.183594 -7.433594 L 10.183594 -9.921875 L 12.601562 -9.324219 L 9.667969 2.492188 L -2.648438 2.492188 L 7.25 -34.980469 C 7.9375 -37.746094 8.792969 -39.773438 9.808594 -41.070312 C 11.449219 -43.089844 14.195312 -44.046875 18.050781 -43.9375 L 27.628906 -43.609375 L 37.324219 -0.546875 Z M 13.882812 -34.886719 C 14.476562 -36.191406 15.375 -36.929688 16.578125 -37.101562 L 16.75 -37.125 L 21.78125 -37.125 L 26.90625 -13.984375 L 8.613281 -13.984375 L 13.789062 -34.683594 Z M 18.417969 -32.828125 L 16.152344 -33.859375 L 18.566406 -33.253906 L 14.222656 -15.871094 L 11.804688 -16.476562 L 11.804688 -18.964844 L 23.804688 -18.964844 L 23.804688 -16.476562 L 21.371094 -15.9375 L 17.351562 -34.097656 L 19.78125 -34.636719 L 19.78125 -32.144531 L 16.929688 -32.144531 L 16.929688 -34.636719 L 17.28125 -32.171875 C 17.675781 -32.226562 18.007812 -32.386719 18.269531 -32.648438 C 18.328125 -32.707031 18.375 -32.765625 18.410156 -32.820312 Z M 18.417969 -32.828125 "/></g></g></g></g><g fill="#000000" fill-opacity="1"><g transform="translate(38.60456, 55.680403)"><g><path d="M 27.5 -4.382812 L 11.96875 -4.382812 L 11.75 -4.425781 C 11 -4.5625 10.378906 -4.878906 9.882812 -5.375 C 9.332031 -5.921875 9.019531 -6.601562 8.9375 -7.40625 L 8.925781 -7.53125 L 8.925781 -33.757812 L 8.964844 -33.980469 C 9.101562 -34.726562 9.417969 -35.347656 9.914062 -35.847656 C 10.460938 -36.394531 11.140625 -36.710938 11.945312 -36.789062 L 12.070312 -36.800781 L 27.5 -36.800781 L 27.5 -34.3125 L 25.011719 -34.3125 L 25.011719 -41.1875 L 27.5 -41.1875 L 27.5 -38.695312 L 13.816406 -38.695312 C 11.230469 -38.695312 9.324219 -38.21875 8.101562 -37.261719 C 7.003906 -36.40625 6.386719 -35.035156 6.246094 -33.152344 L 6.242188 -33.109375 L 6.238281 -33.0625 C 6.203125 -32.765625 6.1875 -32.46875 6.1875 -32.171875 L 6.1875 -9.015625 C 6.21875 -6.785156 6.808594 -5.164062 7.949219 -4.144531 C 9.167969 -3.058594 11.128906 -2.507812 13.832031 -2.492188 L 27.5 -2.492188 L 27.5 0 L 25.011719 0 L 25.011719 -6.875 L 27.5 -6.875 Z M 29.992188 -9.367188 L 29.992188 2.492188 L 13.800781 2.492188 C 9.84375 2.464844 6.789062 1.492188 4.632812 -0.425781 C 2.402344 -2.414062 1.261719 -5.277344 1.207031 -9.015625 L 1.207031 -32.171875 C 1.207031 -32.652344 1.234375 -33.132812 1.285156 -33.613281 L 3.761719 -33.339844 L 1.277344 -33.523438 C 1.527344 -36.871094 2.78125 -39.429688 5.035156 -41.1875 C 7.160156 -42.847656 10.085938 -43.679688 13.816406 -43.679688 L 29.992188 -43.679688 L 29.992188 -31.820312 L 12.195312 -31.820312 L 12.195312 -34.3125 L 12.441406 -31.832031 C 12.816406 -31.871094 13.148438 -32.035156 13.4375 -32.324219 C 13.671875 -32.5625 13.816406 -32.816406 13.867188 -33.089844 L 11.414062 -33.535156 L 13.90625 -33.535156 L 13.90625 -7.652344 L 11.414062 -7.652344 L 13.894531 -7.902344 C 13.855469 -8.273438 13.691406 -8.605469 13.402344 -8.894531 C 13.167969 -9.132812 12.910156 -9.277344 12.640625 -9.324219 L 12.195312 -6.875 L 12.195312 -9.367188 Z M 29.992188 -9.367188 "/></g></g></g><g fill="#ff751f" fill-opacity="1"><g transform="translate(3.190135, 55.680403)"><g><path d="M 34.890625 0 L 25.625 -41.1875 L 17.96875 -41.453125 C 14.9375 -41.535156 12.859375 -40.882812 11.734375 -39.5 C 10.960938 -38.507812 10.273438 -36.800781 9.671875 -34.375 L 0.578125 0 L 7.71875 0 L 10.1875 -9.921875 L 25.171875 -9.921875 L 27.3125 0 Z M 16.15625 -33.859375 C 16.363281 -34.335938 16.625 -34.597656 16.9375 -34.640625 L 19.78125 -34.640625 L 23.8125 -16.46875 L 11.8125 -16.46875 Z M 16.15625 -33.859375 "/></g></g><g transform="translate(38.604559, 55.680403)"><g><path d="M 27.5 -6.875 L 12.1875 -6.875 C 11.71875 -6.957031 11.460938 -7.21875 11.421875 -7.65625 L 11.421875 -33.53125 C 11.503906 -34.007812 11.757812 -34.269531 12.1875 -34.3125 L 27.5 -34.3125 L 27.5 -41.1875 L 13.8125 -41.1875 C 7.5 -41.1875 4.148438 -38.570312 3.765625 -33.34375 C 3.722656 -32.945312 3.703125 -32.554688 3.703125 -32.171875 L 3.703125 -9.015625 C 3.785156 -3.046875 7.15625 -0.0390625 13.8125 0 L 27.5 0 Z M 27.5 -6.875 "/></g></g></g></g></g></svg>