<svg xmlns="http://www.w3.org/2000/svg" xmlns:xlink="http://www.w3.org/1999/xlink" width="2000" zoomAndPan="magnify" viewBox="0 0 1500 1499.999933" height="2000" preserveAspectRatio="xMidYMid meet" version="1.0"><defs><g/><clipPath id="f6ba373741"><rect x="0" width="1460" y="0" height="197"/></clipPath><clipPath id="9349d4a27e"><path d="M 0.359375 82 L 319.558594 82 L 319.558594 449 L 0.359375 449 Z M 0.359375 82 " clip-rule="nonzero"/></clipPath><clipPath id="f172ab3469"><rect x="0" width="320" y="0" height="572"/></clipPath><clipPath id="2446aa7968"><rect x="0" width="343" y="0" height="571"/></clipPath><clipPath id="b1663b2a2d"><path d="M 0.238281 84 L 320 84 L 320 450 L 0.238281 450 Z M 0.238281 84 " clip-rule="nonzero"/></clipPath><clipPath id="2ec014bc93"><rect x="0" width="539" y="0" height="571"/></clipPath></defs><g transform="matrix(1, 0, 0, 1, 20, 914)"><g clip-path="url(#f6ba373741)"><path fill="#000000" d="M 50.5 1.28125 L 1409.492188 1.28125 C 1436.335938 1.28125 1458.09375 23.039062 1458.09375 49.882812 L 1458.09375 147.085938 C 1458.09375 173.925781 1436.335938 195.6875 1409.492188 195.6875 L 50.5 195.6875 C 23.65625 195.6875 1.898438 173.925781 1.898438 147.085938 L 1.898438 49.882812 C 1.898438 23.039062 23.65625 1.28125 50.5 1.28125 Z M 50.5 1.28125 " fill-opacity="1" fill-rule="nonzero"/><g fill="#ffffff" fill-opacity="1"><g transform="translate(57.679639, 131.870309)"><g><path d="M 7.203125 0 L 7.203125 -67.921875 L 24.390625 -67.921875 L 24.390625 -14.609375 L 51.328125 -14.609375 L 51.328125 0 Z M 7.203125 0 "/></g></g></g><g fill="#ffffff" fill-opacity="1"><g transform="translate(143.853521, 131.870309)"><g><path d="M 7.015625 0 L 7.015625 -67.921875 L 24.1875 -67.921875 L 24.1875 0 Z M 7.015625 0 "/></g></g></g><g fill="#ffffff" fill-opacity="1"><g transform="translate(207.6228, 131.870309)"><g><path d="M 7.203125 0 L 7.203125 -67.921875 L 53.40625 -67.921875 L 53.40625 -54 L 24.390625 -54 L 24.390625 -39.09375 L 49.65625 -39.09375 L 49.65625 -25.171875 L 24.390625 -25.171875 L 24.390625 0 Z M 7.203125 0 "/></g></g></g><g fill="#ffffff" fill-opacity="1"><g transform="translate(297.152448, 131.870309)"><g><path d="M 20.34375 0 L 20.34375 -53.3125 L 1.578125 -53.3125 L 1.578125 -67.921875 L 56.375 -67.921875 L 56.375 -53.3125 L 37.515625 -53.3125 L 37.515625 0 Z M 20.34375 0 "/></g></g></g><g fill="#ffffff" fill-opacity="1"><g transform="translate(387.57037, 131.870309)"><g><path d="M 7.015625 0 L 7.015625 -67.921875 L 24.1875 -67.921875 L 24.1875 0 Z M 7.015625 0 "/></g></g></g><g fill="#ffffff" fill-opacity="1"><g transform="translate(451.33967, 131.870309)"><g><path d="M 47.390625 0 L 23.890625 -38.796875 L 23.390625 -38.796875 L 23.390625 0 L 7.015625 0 L 7.015625 -67.921875 L 24.671875 -67.921875 L 46.5 -32.671875 L 46.984375 -32.671875 L 46.984375 -67.921875 L 63.46875 -67.921875 L 63.46875 0 Z M 47.390625 0 "/></g></g></g><g fill="#ffffff" fill-opacity="1"><g transform="translate(554.391004, 131.870309)"><g><path d="M 34.0625 -26.65625 L 34.0625 -39.6875 L 59.421875 -39.6875 L 59.421875 -1.484375 C 56.003906 -0.828125 52.070312 -0.285156 47.625 0.140625 C 43.1875 0.578125 39.289062 0.796875 35.9375 0.796875 C 27.175781 0.796875 20.691406 -0.109375 16.484375 -1.921875 C 12.273438 -3.734375 9.378906 -7.023438 7.796875 -11.796875 C 6.210938 -16.566406 5.421875 -23.953125 5.421875 -33.953125 C 5.421875 -43.304688 6.226562 -50.398438 7.84375 -55.234375 C 9.457031 -60.066406 12.398438 -63.519531 16.671875 -65.59375 C 20.953125 -67.664062 27.335938 -68.703125 35.828125 -68.703125 C 40.703125 -68.703125 45.539062 -68.40625 50.34375 -67.8125 C 55.144531 -67.226562 58.070312 -66.769531 59.125 -66.4375 L 59.125 -53.40625 C 51.757812 -54.320312 46.101562 -54.78125 42.15625 -54.78125 C 35.632812 -54.78125 31.171875 -54.4375 28.765625 -53.75 C 26.367188 -53.0625 24.773438 -51.367188 23.984375 -48.671875 C 23.191406 -45.972656 22.796875 -41.066406 22.796875 -33.953125 C 22.796875 -27.503906 23.09375 -22.878906 23.6875 -20.078125 C 24.28125 -17.285156 25.515625 -15.363281 27.390625 -14.3125 C 29.265625 -13.257812 32.34375 -12.734375 36.625 -12.734375 C 38.988281 -12.734375 41.257812 -12.832031 43.4375 -13.03125 L 43.4375 -26.65625 Z M 34.0625 -26.65625 "/></g></g></g><g fill="#ffffff" fill-opacity="1"><g transform="translate(710.453486, 131.870309)"><g><path d="M 32.078125 0.796875 C 22.472656 0.796875 13.953125 0.234375 6.515625 -0.890625 L 6.515625 -14.3125 C 14.546875 -13.519531 21.320312 -13.125 26.84375 -13.125 C 30.070312 -13.125 32.539062 -13.253906 34.25 -13.515625 C 35.96875 -13.785156 37.1875 -14.21875 37.90625 -14.8125 C 38.5625 -15.332031 38.972656 -15.972656 39.140625 -16.734375 C 39.304688 -17.492188 39.390625 -18.5625 39.390625 -19.9375 C 39.390625 -21.582031 39.253906 -22.765625 38.984375 -23.484375 C 38.722656 -24.210938 38.195312 -24.722656 37.40625 -25.015625 C 36.625 -25.316406 35.242188 -25.597656 33.265625 -25.859375 L 20.734375 -27.4375 C 16.253906 -27.96875 12.847656 -29.101562 10.515625 -30.84375 C 8.179688 -32.59375 6.601562 -34.847656 5.78125 -37.609375 C 4.957031 -40.378906 4.546875 -43.835938 4.546875 -47.984375 C 4.546875 -53.835938 5.628906 -58.273438 7.796875 -61.296875 C 9.972656 -64.328125 12.882812 -66.316406 16.53125 -67.265625 C 20.1875 -68.222656 24.84375 -68.703125 30.5 -68.703125 C 34.644531 -68.703125 38.445312 -68.535156 41.90625 -68.203125 C 45.363281 -67.878906 49.128906 -67.359375 53.203125 -66.640625 L 53.203125 -53.5 C 45.378906 -54.351562 38.960938 -54.78125 33.953125 -54.78125 C 28.691406 -54.78125 25.269531 -54.390625 23.6875 -53.609375 C 22.832031 -53.210938 22.289062 -52.648438 22.0625 -51.921875 C 21.832031 -51.203125 21.71875 -50.179688 21.71875 -48.859375 C 21.71875 -47.210938 21.832031 -46.046875 22.0625 -45.359375 C 22.289062 -44.671875 22.78125 -44.175781 23.53125 -43.875 C 24.289062 -43.582031 25.628906 -43.304688 27.546875 -43.046875 L 41.953125 -41.265625 C 44.847656 -40.929688 47.234375 -40.335938 49.109375 -39.484375 C 50.984375 -38.628906 52.546875 -37.179688 53.796875 -35.140625 C 55.710938 -32.316406 56.671875 -27.8125 56.671875 -21.625 C 56.671875 -15.164062 55.648438 -10.304688 53.609375 -7.046875 C 51.566406 -3.796875 48.832031 -1.675781 45.40625 -0.6875 C 41.988281 0.300781 37.546875 0.796875 32.078125 0.796875 Z M 32.078125 0.796875 "/></g></g></g><g fill="#ffffff" fill-opacity="1"><g transform="translate(804.227195, 131.870309)"><g><path d="M 7.203125 0 L 7.203125 -67.921875 L 55.375 -67.921875 L 55.375 -54 L 24.390625 -54 L 24.390625 -41.265625 L 50.640625 -41.265625 L 50.640625 -27.34375 L 24.390625 -27.34375 L 24.390625 -13.921875 L 55.375 -13.921875 L 55.375 0 Z M 7.203125 0 "/></g></g></g><g fill="#ffffff" fill-opacity="1"><g transform="translate(897.507361, 131.870309)"><g><path d="M 45.21875 0 L 36.328125 -23.796875 L 24.390625 -23.796875 L 24.390625 0 L 7.203125 0 L 7.203125 -67.921875 L 39.78125 -67.921875 C 46.03125 -67.921875 50.75 -67.046875 53.9375 -65.296875 C 57.132812 -63.554688 59.242188 -61.15625 60.265625 -58.09375 C 61.285156 -55.03125 61.796875 -50.9375 61.796875 -45.8125 C 61.796875 -41.070312 61.1875 -36.957031 59.96875 -33.46875 C 58.75 -29.976562 56.332031 -27.441406 52.71875 -25.859375 L 63.1875 0 Z M 33.265625 -37.421875 C 36.816406 -37.421875 39.332031 -37.613281 40.8125 -38 C 42.300781 -38.394531 43.273438 -39.132812 43.734375 -40.21875 C 44.191406 -41.3125 44.421875 -43.140625 44.421875 -45.703125 C 44.421875 -48.335938 44.222656 -50.195312 43.828125 -51.28125 C 43.429688 -52.363281 42.492188 -53.101562 41.015625 -53.5 C 39.535156 -53.894531 37.019531 -54.09375 33.46875 -54.09375 L 24.390625 -54.09375 L 24.390625 -37.421875 Z M 33.265625 -37.421875 "/></g></g></g><g fill="#ffffff" fill-opacity="1"><g transform="translate(997.104303, 131.870309)"><g><path d="M 21.125 0 L 0.984375 -67.921875 L 18.5625 -67.921875 L 32.375 -19.046875 L 33.171875 -19.046875 L 46.890625 -67.921875 L 64.171875 -67.921875 L 43.9375 0 Z M 21.125 0 "/></g></g></g><g fill="#ffffff" fill-opacity="1"><g transform="translate(1094.825866, 131.870309)"><g><path d="M 7.015625 0 L 7.015625 -67.921875 L 24.1875 -67.921875 L 24.1875 0 Z M 7.015625 0 "/></g></g></g><g fill="#ffffff" fill-opacity="1"><g transform="translate(1158.595185, 131.870309)"><g><path d="M 52.421875 -0.890625 C 50.179688 -0.429688 47.363281 -0.0351562 43.96875 0.296875 C 40.582031 0.628906 37.410156 0.796875 34.453125 0.796875 C 25.898438 0.796875 19.582031 -0.253906 15.5 -2.359375 C 11.414062 -4.472656 8.710938 -7.898438 7.390625 -12.640625 C 6.078125 -17.378906 5.421875 -24.484375 5.421875 -33.953125 C 5.421875 -43.304688 6.097656 -50.347656 7.453125 -55.078125 C 8.804688 -59.816406 11.519531 -63.269531 15.59375 -65.4375 C 19.675781 -67.613281 25.960938 -68.703125 34.453125 -68.703125 C 37.410156 -68.703125 40.535156 -68.519531 43.828125 -68.15625 C 47.117188 -67.800781 49.851562 -67.359375 52.03125 -66.828125 L 52.03125 -53.796875 C 45.3125 -54.453125 40.867188 -54.78125 38.703125 -54.78125 C 33.304688 -54.78125 29.585938 -54.367188 27.546875 -53.546875 C 25.503906 -52.734375 24.203125 -51.023438 23.640625 -48.421875 C 23.078125 -45.816406 22.796875 -40.992188 22.796875 -33.953125 C 22.796875 -26.910156 23.078125 -22.085938 23.640625 -19.484375 C 24.203125 -16.890625 25.503906 -15.179688 27.546875 -14.359375 C 29.585938 -13.535156 33.304688 -13.125 38.703125 -13.125 C 43.566406 -13.125 48.140625 -13.453125 52.421875 -14.109375 Z M 52.421875 -0.890625 "/></g></g></g><g fill="#ffffff" fill-opacity="1"><g transform="translate(1247.828708, 131.870309)"><g><path d="M 7.203125 0 L 7.203125 -67.921875 L 55.375 -67.921875 L 55.375 -54 L 24.390625 -54 L 24.390625 -41.265625 L 50.640625 -41.265625 L 50.640625 -27.34375 L 24.390625 -27.34375 L 24.390625 -13.921875 L 55.375 -13.921875 L 55.375 0 Z M 7.203125 0 "/></g></g></g><g fill="#ffffff" fill-opacity="1"><g transform="translate(1341.108873, 131.870309)"><g><path d="M 32.078125 0.796875 C 22.472656 0.796875 13.953125 0.234375 6.515625 -0.890625 L 6.515625 -14.3125 C 14.546875 -13.519531 21.320312 -13.125 26.84375 -13.125 C 30.070312 -13.125 32.539062 -13.253906 34.25 -13.515625 C 35.96875 -13.785156 37.1875 -14.21875 37.90625 -14.8125 C 38.5625 -15.332031 38.972656 -15.972656 39.140625 -16.734375 C 39.304688 -17.492188 39.390625 -18.5625 39.390625 -19.9375 C 39.390625 -21.582031 39.253906 -22.765625 38.984375 -23.484375 C 38.722656 -24.210938 38.195312 -24.722656 37.40625 -25.015625 C 36.625 -25.316406 35.242188 -25.597656 33.265625 -25.859375 L 20.734375 -27.4375 C 16.253906 -27.96875 12.847656 -29.101562 10.515625 -30.84375 C 8.179688 -32.59375 6.601562 -34.847656 5.78125 -37.609375 C 4.957031 -40.378906 4.546875 -43.835938 4.546875 -47.984375 C 4.546875 -53.835938 5.628906 -58.273438 7.796875 -61.296875 C 9.972656 -64.328125 12.882812 -66.316406 16.53125 -67.265625 C 20.1875 -68.222656 24.84375 -68.703125 30.5 -68.703125 C 34.644531 -68.703125 38.445312 -68.535156 41.90625 -68.203125 C 45.363281 -67.878906 49.128906 -67.359375 53.203125 -66.640625 L 53.203125 -53.5 C 45.378906 -54.351562 38.960938 -54.78125 33.953125 -54.78125 C 28.691406 -54.78125 25.269531 -54.390625 23.6875 -53.609375 C 22.832031 -53.210938 22.289062 -52.648438 22.0625 -51.921875 C 21.832031 -51.203125 21.71875 -50.179688 21.71875 -48.859375 C 21.71875 -47.210938 21.832031 -46.046875 22.0625 -45.359375 C 22.289062 -44.671875 22.78125 -44.175781 23.53125 -43.875 C 24.289062 -43.582031 25.628906 -43.304688 27.546875 -43.046875 L 41.953125 -41.265625 C 44.847656 -40.929688 47.234375 -40.335938 49.109375 -39.484375 C 50.984375 -38.628906 52.546875 -37.179688 53.796875 -35.140625 C 55.710938 -32.316406 56.671875 -27.8125 56.671875 -21.625 C 56.671875 -15.164062 55.648438 -10.304688 53.609375 -7.046875 C 51.566406 -3.796875 48.832031 -1.675781 45.40625 -0.6875 C 41.988281 0.300781 37.546875 0.796875 32.078125 0.796875 Z M 32.078125 0.796875 "/></g></g></g></g></g><g transform="matrix(1, 0, 0, 1, 153, 454)"><g clip-path="url(#f172ab3469)"><g clip-path="url(#9349d4a27e)"><g fill="#000000" fill-opacity="1"><g transform="translate(20.841828, 428.938452)"><g><path d="M 254.734375 4.292969 L 181.960938 -318.875 L 201.023438 -323.167969 L 200.363281 -303.636719 L 140.308594 -305.671875 C 130.683594 -305.945312 122.835938 -305.136719 116.773438 -303.242188 C 112.378906 -301.867188 109.21875 -299.992188 107.28125 -297.613281 C 103.03125 -292.175781 98.867188 -281.300781 94.789062 -264.992188 L 23.476562 4.992188 L 4.582031 0 L 4.582031 -19.542969 L 60.5625 -19.542969 L 60.5625 0 L 41.59375 -4.710938 L 64.617188 -97.410156 L 213.238281 -97.410156 L 233.359375 -4.121094 L 214.257812 0 L 214.257812 -19.542969 L 273.800781 -19.542969 L 273.800781 0 Z M 298.234375 19.542969 L 198.480469 19.542969 L 178.359375 -73.746094 L 197.460938 -77.867188 L 197.460938 -58.324219 L 79.902344 -58.324219 L 79.902344 -77.867188 L 98.867188 -73.15625 L 75.84375 19.542969 L -20.796875 19.542969 L 56.871094 -274.46875 C 62.292969 -296.15625 68.984375 -312.085938 76.949219 -322.257812 C 89.824219 -338.105469 111.386719 -345.597656 141.632812 -344.734375 L 216.773438 -342.1875 L 292.867188 -4.292969 Z M 108.929688 -273.746094 C 113.582031 -283.976562 120.625 -289.765625 130.066406 -291.113281 L 131.441406 -291.308594 L 170.910156 -291.308594 L 211.117188 -109.722656 L 67.59375 -109.722656 L 108.195312 -272.125 Z M 144.511719 -257.570312 L 126.722656 -265.660156 L 145.679688 -260.917969 L 111.582031 -124.527344 L 92.625 -129.265625 L 92.625 -148.808594 L 186.777344 -148.808594 L 186.777344 -129.265625 L 167.695312 -125.042969 L 136.140625 -267.539062 L 155.222656 -271.765625 L 155.222656 -252.222656 L 132.828125 -252.222656 L 132.828125 -271.765625 L 135.59375 -252.417969 C 138.703125 -252.863281 141.289062 -254.113281 143.339844 -256.164062 C 143.808594 -256.632812 144.183594 -257.085938 144.464844 -257.523438 Z M 144.511719 -257.570312 "/></g></g></g></g><g fill="#ff751f" fill-opacity="1"><g transform="translate(20.841828, 428.938452)"><g><path d="M 273.796875 0 L 201.03125 -323.171875 L 140.96875 -325.203125 C 117.21875 -325.878906 100.929688 -320.789062 92.109375 -309.9375 C 86.003906 -302.132812 80.578125 -288.734375 75.828125 -269.734375 L 4.578125 0 L 60.5625 0 L 79.90625 -77.859375 L 197.46875 -77.859375 L 214.265625 0 Z M 126.71875 -265.65625 C 128.414062 -269.382812 130.453125 -271.421875 132.828125 -271.765625 L 155.21875 -271.765625 L 186.78125 -129.265625 L 92.625 -129.265625 Z M 126.71875 -265.65625 "/></g></g></g></g></g><g transform="matrix(1, 0, 0, 1, 463, 454)"><g clip-path="url(#2446aa7968)"><g fill="#000000" fill-opacity="1"><g transform="translate(1.041929, 429.107876)"><g><path d="M 273.421875 -302.640625 L 255.667969 -302.640625 L 255.667969 -322.117188 L 272.957031 -313.148438 L 171.589844 -117.742188 L 79.148438 -293.257812 C 77.382812 -296.566406 75.660156 -299.058594 73.984375 -300.734375 C 73.257812 -301.464844 72.769531 -301.867188 72.523438 -301.9375 L 78.121094 -320.597656 L 73.394531 -301.699219 C 70.886719 -302.328125 67.558594 -302.640625 63.410156 -302.640625 L 30.945312 -302.640625 L 30.945312 -322.117188 L 50.421875 -322.117188 L 50.421875 0 L 30.945312 0 L 30.945312 -19.480469 L 83.699219 -19.480469 L 83.699219 0 L 64.222656 0 L 64.222656 -226.246094 L 101.070312 -235.0625 L 167.015625 -105.203125 L 149.644531 -96.382812 L 149.644531 -115.863281 L 184.648438 -115.863281 L 184.648438 -96.382812 L 167.34375 -105.328125 L 236.335938 -238.742188 L 273.117188 -229.796875 L 273.117188 0 L 253.636719 0 L 253.636719 -19.480469 L 310.957031 -19.480469 L 310.957031 0 L 291.480469 0 L 291.480469 -285.59375 C 291.480469 -291.785156 290.636719 -296.199219 288.953125 -298.835938 C 288.101562 -300.171875 286.558594 -301.09375 284.320312 -301.601562 C 281.324219 -302.292969 277.691406 -302.640625 273.421875 -302.640625 Z M 273.421875 -341.597656 C 280.648438 -341.597656 287.160156 -340.929688 292.957031 -339.59375 C 305.597656 -336.71875 315.214844 -330.117188 321.804688 -319.785156 C 327.558594 -310.757812 330.4375 -299.359375 330.4375 -285.59375 L 330.4375 19.480469 L 234.15625 19.480469 L 234.15625 -229.796875 L 253.636719 -229.796875 L 270.941406 -220.847656 L 196.503906 -76.902344 L 137.691406 -76.902344 L 66.332031 -217.425781 L 83.699219 -226.246094 L 103.179688 -226.246094 L 103.179688 19.480469 L 11.464844 19.480469 L 11.464844 -341.597656 L 63.410156 -341.597656 C 70.757812 -341.597656 77.234375 -340.898438 82.84375 -339.496094 L 83.285156 -339.386719 L 83.71875 -339.253906 C 95.664062 -335.671875 105.628906 -326.390625 113.617188 -311.414062 L 188.695312 -168.867188 L 171.457031 -159.792969 L 154.167969 -168.761719 L 243.828125 -341.597656 Z M 273.421875 -341.597656 "/></g></g></g><g fill="#ff751f" fill-opacity="1"><g transform="translate(1.041929, 429.107876)"><g><path d="M 273.421875 -322.125 L 255.671875 -322.125 L 171.453125 -159.796875 L 96.390625 -302.34375 C 90.972656 -312.488281 84.882812 -318.570312 78.125 -320.59375 C 74.0625 -321.613281 69.15625 -322.125 63.40625 -322.125 L 30.9375 -322.125 L 30.9375 0 L 83.703125 0 L 83.703125 -226.25 L 149.640625 -96.390625 L 184.65625 -96.390625 L 253.640625 -229.796875 L 253.640625 0 L 310.96875 0 L 310.96875 -285.59375 C 310.96875 -305.550781 303.523438 -317.21875 288.640625 -320.59375 C 284.242188 -321.613281 279.171875 -322.125 273.421875 -322.125 Z M 273.421875 -322.125 "/></g></g></g></g></g><g transform="matrix(1, 0, 0, 1, 804, 456)"><g clip-path="url(#2ec014bc93)"><g clip-path="url(#b1663b2a2d)"><g fill="#000000" fill-opacity="1"><g transform="translate(21.776604, 429.310912)"><g><path d="M 253.910156 4.28125 L 181.371094 -317.839844 L 200.375 -322.117188 L 199.714844 -302.652344 L 139.855469 -304.679688 C 130.257812 -304.953125 122.4375 -304.148438 116.394531 -302.257812 C 112.015625 -300.890625 108.863281 -299.019531 106.933594 -296.644531 C 102.699219 -291.226562 98.546875 -280.390625 94.480469 -264.128906 L 23.398438 4.976562 L 4.566406 0 L 4.566406 -19.480469 L 60.367188 -19.480469 L 60.367188 0 L 41.460938 -4.695312 L 64.410156 -97.09375 L 212.546875 -97.09375 L 232.605469 -4.105469 L 213.5625 0 L 213.5625 -19.480469 L 272.914062 -19.480469 L 272.914062 0 Z M 297.265625 19.480469 L 197.835938 19.480469 L 177.78125 -73.507812 L 196.824219 -77.613281 L 196.824219 -58.132812 L 79.640625 -58.132812 L 79.640625 -77.613281 L 98.546875 -72.917969 L 75.597656 19.480469 L -20.726562 19.480469 L 56.6875 -273.578125 C 62.089844 -295.195312 68.761719 -311.074219 76.699219 -321.214844 C 89.535156 -337.011719 111.027344 -344.476562 141.175781 -343.617188 L 216.070312 -341.078125 L 291.917969 -4.28125 Z M 108.578125 -272.859375 C 113.210938 -283.054688 120.234375 -288.824219 129.644531 -290.167969 L 131.015625 -290.363281 L 170.355469 -290.363281 L 210.433594 -109.367188 L 67.375 -109.367188 L 107.84375 -271.242188 Z M 144.042969 -256.738281 L 126.3125 -264.796875 L 145.207031 -260.074219 L 111.222656 -124.125 L 92.324219 -128.847656 L 92.324219 -148.328125 L 186.167969 -148.328125 L 186.167969 -128.847656 L 167.152344 -124.636719 L 135.699219 -266.671875 L 154.71875 -270.882812 L 154.71875 -251.40625 L 132.398438 -251.40625 L 132.398438 -270.882812 L 135.152344 -251.601562 C 138.253906 -252.042969 140.828125 -253.289062 142.875 -255.335938 C 143.339844 -255.800781 143.714844 -256.25 143.996094 -256.6875 Z M 144.042969 -256.738281 "/></g></g></g></g><g fill="#000000" fill-opacity="1"><g transform="translate(298.74822, 429.310912)"><g><path d="M 215.085938 -34.292969 L 93.609375 -34.292969 L 91.882812 -34.605469 C 86.03125 -35.667969 81.164062 -38.144531 77.28125 -42.027344 C 72.988281 -46.320312 70.527344 -51.617188 69.898438 -57.921875 L 69.800781 -58.886719 L 69.800781 -264.015625 L 70.113281 -265.746094 C 71.179688 -271.597656 73.652344 -276.464844 77.535156 -280.347656 C 81.828125 -284.640625 87.125 -287.101562 93.429688 -287.730469 L 94.394531 -287.828125 L 215.085938 -287.828125 L 215.085938 -268.347656 L 195.605469 -268.347656 L 195.605469 -322.117188 L 215.085938 -322.117188 L 215.085938 -302.640625 L 108.050781 -302.640625 C 87.832031 -302.640625 72.929688 -298.898438 63.347656 -291.417969 C 54.777344 -284.726562 49.941406 -274.019531 48.847656 -259.292969 L 48.820312 -258.941406 L 48.78125 -258.585938 C 48.523438 -256.257812 48.394531 -253.933594 48.394531 -251.609375 L 48.394531 -70.511719 C 48.648438 -53.074219 53.238281 -40.378906 62.164062 -32.425781 C 71.695312 -23.929688 87.035156 -19.617188 108.175781 -19.480469 L 215.085938 -19.480469 L 215.085938 0 L 195.605469 0 L 195.605469 -53.769531 L 215.085938 -53.769531 Z M 234.5625 -73.25 L 234.5625 19.480469 L 107.921875 19.480469 C 76.984375 19.277344 53.09375 11.671875 36.246094 -3.335938 C 18.792969 -18.886719 9.859375 -41.277344 9.433594 -70.511719 L 9.433594 -251.609375 C 9.433594 -255.371094 9.644531 -259.132812 10.0625 -262.890625 L 29.421875 -260.738281 L 9.996094 -262.183594 C 11.945312 -288.378906 21.738281 -308.359375 39.375 -322.128906 C 56 -335.109375 78.894531 -341.597656 108.050781 -341.597656 L 234.5625 -341.597656 L 234.5625 -248.867188 L 95.367188 -248.867188 L 95.367188 -268.347656 L 97.304688 -248.964844 C 100.226562 -249.257812 102.820312 -250.535156 105.082031 -252.796875 C 106.9375 -254.652344 108.058594 -256.644531 108.445312 -258.777344 L 89.28125 -262.261719 L 108.757812 -262.261719 L 108.757812 -59.859375 L 89.28125 -59.859375 L 108.664062 -61.796875 C 108.371094 -64.71875 107.09375 -67.3125 104.828125 -69.574219 C 102.976562 -71.429688 100.984375 -72.546875 98.851562 -72.9375 L 95.367188 -53.769531 L 95.367188 -73.25 Z M 234.5625 -73.25 "/></g></g></g><g fill="#ff751f" fill-opacity="1"><g transform="translate(21.776604, 429.310912)"><g><path d="M 272.921875 0 L 200.375 -322.125 L 140.515625 -324.15625 C 116.835938 -324.832031 100.601562 -319.757812 91.8125 -308.9375 C 85.726562 -301.15625 80.316406 -287.796875 75.578125 -268.859375 L 4.5625 0 L 60.359375 0 L 79.640625 -77.609375 L 196.828125 -77.609375 L 213.5625 0 Z M 126.3125 -264.796875 C 128 -268.515625 130.03125 -270.546875 132.40625 -270.890625 L 154.71875 -270.890625 L 186.171875 -128.84375 L 92.328125 -128.84375 Z M 126.3125 -264.796875 "/></g></g><g transform="translate(298.748215, 429.310912)"><g><path d="M 215.09375 -53.765625 L 95.375 -53.765625 C 91.644531 -54.441406 89.613281 -56.472656 89.28125 -59.859375 L 89.28125 -262.265625 C 89.957031 -265.984375 91.988281 -268.007812 95.375 -268.34375 L 215.09375 -268.34375 L 215.09375 -322.125 L 108.046875 -322.125 C 58.671875 -322.125 32.460938 -301.660156 29.421875 -260.734375 C 29.085938 -257.691406 28.921875 -254.648438 28.921875 -251.609375 L 28.921875 -70.515625 C 29.585938 -23.835938 55.960938 -0.332031 108.046875 0 L 215.09375 0 Z M 215.09375 -53.765625 "/></g></g></g></g></g></svg>